<svg width="53" height="60" viewBox="0 0 53 60" fill="none" xmlns="http://www.w3.org/2000/svg">
<g filter="url(#filter0_d_498_384)">
<path d="M41.7852 38.1382C38.5314 47.239 28.516 51.9789 19.4152 48.7251C10.3144 45.4713 5.57442 35.456 8.82821 26.3552C10.3885 21.9911 14.3103 18.7156 19.4025 15.9014C21.9211 14.5095 24.641 13.2755 27.3683 12.0924C28.0849 11.7815 28.8056 11.4727 29.5233 11.1652C30.8483 10.5975 32.1634 10.034 33.424 9.46986C34.1053 10.8822 34.8586 12.3519 35.6213 13.84C35.8488 14.2838 36.0771 14.7292 36.3046 15.1752C37.6467 17.8068 38.9829 20.5015 40.0768 23.2058C42.2938 28.6861 43.3386 33.7932 41.7852 38.1382Z" fill="#D41411" stroke="white" stroke-width="4"/>
<g clip-path="url(#clip0_498_384)">
<path d="M20.5017 35.6072C20.7167 35.684 20.9534 35.6723 21.1597 35.5747C21.3661 35.477 21.5252 35.3014 21.602 35.0864C21.6253 35.0339 21.6447 34.9797 21.66 34.9243C21.6693 34.8704 21.6705 34.8153 21.6635 34.761C21.6643 34.703 21.6573 34.6452 21.6427 34.589L21.5889 34.4327C21.5382 34.3313 21.468 34.241 21.3823 34.1668C21.2563 34.0413 21.0945 33.9579 20.9192 33.9281L20.7559 33.9246L20.5839 33.9454C20.5307 33.9601 20.4785 33.9781 20.4276 33.9992L20.2868 34.086C20.24 34.1202 20.1979 34.1605 20.1617 34.2058C20.1219 34.2434 20.0879 34.2867 20.0609 34.3343C20.0376 34.3868 20.0183 34.441 20.003 34.4964C19.9261 34.7114 19.9378 34.9481 20.0354 35.1544C20.1331 35.3608 20.3087 35.5199 20.5237 35.5968L20.5017 35.6072ZM26.9861 37.9255C27.201 38.0024 27.4377 37.9907 27.6441 37.893C27.8504 37.7954 28.0096 37.6197 28.0864 37.4048C28.1097 37.3522 28.1291 37.298 28.1444 37.2426C28.1537 37.1887 28.1548 37.1337 28.1479 37.0794C28.1486 37.0214 28.1416 36.9635 28.1271 36.9074L28.0733 36.751C28.0201 36.6513 27.9502 36.5613 27.8667 36.4852C27.6983 36.3336 27.477 36.2544 27.2507 36.2649C27.1378 36.2709 27.0267 36.2961 26.9223 36.3395L26.7816 36.4263C26.7348 36.4605 26.6927 36.5008 26.6565 36.5461C26.6167 36.5837 26.5827 36.627 26.5557 36.6747C26.5324 36.7272 26.5131 36.7814 26.4977 36.8368C26.4226 37.0497 26.4342 37.2837 26.5299 37.4882C26.621 37.6865 26.7841 37.8428 26.9861 37.9255ZM28.0319 27.3296L26.4109 26.75C26.1959 26.6731 25.9592 26.6848 25.7528 26.7825C25.5465 26.8801 25.3874 27.0558 25.3105 27.2707C25.2337 27.4857 25.2453 27.7224 25.343 27.9288C25.4407 28.1351 25.6163 28.2942 25.8313 28.3711L27.4524 28.9507C27.6673 29.0275 27.904 29.0158 28.1104 28.9182C28.3167 28.8205 28.4758 28.6449 28.5527 28.4299C28.6296 28.2149 28.6179 27.9782 28.5202 27.7719C28.4225 27.5655 28.2469 27.4064 28.0319 27.3296ZM32.9541 26.3469L23.2275 22.8694C22.5826 22.6388 21.8725 22.6739 21.2534 22.9668C20.6344 23.2598 20.157 23.7867 19.9265 24.4316L16.449 34.1582C16.271 34.6604 16.2527 35.2053 16.3967 35.7183C16.5406 36.2313 16.8396 36.6872 17.2528 37.0235L16.9109 37.98C16.834 38.1949 16.8457 38.4316 16.9434 38.638C17.041 38.8444 17.2167 39.0035 17.4316 39.0803C17.6466 39.1572 17.8833 39.1455 18.0897 39.0478C18.296 38.9502 18.4551 38.7745 18.532 38.5596L18.8218 37.749L26.9272 40.6469L26.6375 41.4575C26.5606 41.6725 26.5723 41.9092 26.6699 42.1155C26.7676 42.3219 26.9432 42.481 27.1582 42.5578C27.3732 42.6347 27.6099 42.623 27.8162 42.5253C28.0226 42.4277 28.1817 42.252 28.2585 42.0371L28.6005 41.0806C29.1333 41.0825 29.6536 40.9196 30.0901 40.6141C30.5267 40.3086 30.858 39.8756 31.0388 39.3745L34.5163 29.6479C34.7469 29.003 34.7118 28.2929 34.4189 27.6738C34.1259 27.0548 33.599 26.5775 32.9541 26.3469ZM29.4177 38.7949C29.3409 39.0099 29.1818 39.1855 28.9754 39.2832C28.769 39.3808 28.5323 39.3925 28.3174 39.3156L18.5908 35.8381C18.3758 35.7613 18.2002 35.6022 18.1025 35.3958C18.0049 35.1895 17.9932 34.9528 18.0701 34.7378L18.9394 32.3061L30.2871 36.3632L29.4177 38.7949ZM30.8667 34.7421L19.519 30.6851L21.5476 25.0112C21.6244 24.7963 21.7835 24.6206 21.9899 24.523C22.1962 24.4253 22.4329 24.4136 22.6479 24.4905L32.3745 27.968C32.5894 28.0448 32.7651 28.2039 32.8627 28.4103C32.9604 28.6167 32.9721 28.8534 32.8952 29.0683L30.8667 34.7421Z" fill="white"/>
</g>
</g>
<defs>
<filter id="filter0_d_498_384" x="1.80138" y="6.82272" width="46.7242" height="52.9292" filterUnits="userSpaceOnUse" color-interpolation-filters="sRGB">
<feFlood flood-opacity="0" result="BackgroundImageFix"/>
<feColorMatrix in="SourceAlpha" type="matrix" values="0 0 0 0 0 0 0 0 0 0 0 0 0 0 0 0 0 0 127 0" result="hardAlpha"/>
<feOffset dy="4"/>
<feGaussianBlur stdDeviation="2"/>
<feComposite in2="hardAlpha" operator="out"/>
<feColorMatrix type="matrix" values="0 0 0 0 0 0 0 0 0 0 0 0 0 0 0 0 0 0 0.25 0"/>
<feBlend mode="normal" in2="BackgroundImageFix" result="effect1_dropShadow_498_384"/>
<feBlend mode="normal" in="SourceGraphic" in2="effect1_dropShadow_498_384" result="shape"/>
</filter>
<clipPath id="clip0_498_384">
<rect width="20.6591" height="20.6591" fill="white" transform="translate(18.4185 19.3451) rotate(19.6734)"/>
</clipPath>
</defs>
</svg>
