<svg width="48" height="55" viewBox="0 0 48 55" fill="none" xmlns="http://www.w3.org/2000/svg">
<g filter="url(#filter0_d_498_384)">
<path d="M41.0692 27.4655C41.0692 37.1305 33.2341 44.9655 23.5692 44.9655C13.9042 44.9655 6.06917 37.1305 6.06917 27.4655C6.06917 22.831 8.65933 18.4264 12.5069 14.0621C14.4099 11.9036 16.5555 9.82587 18.7254 7.79364C19.2955 7.25971 19.8701 6.72632 20.4425 6.19508C21.499 5.21442 22.5476 4.24114 23.5447 3.28552C24.6617 4.3861 25.8658 5.51637 27.085 6.66084C27.4486 7.00214 27.8135 7.3447 28.1779 7.68812C30.3276 9.71426 32.493 11.8018 34.4335 13.9799C38.366 18.394 41.0692 22.8512 41.0692 27.4655Z" fill="#D41411" stroke="white" stroke-width="4"/>
<path d="M20.176 32.2475C20.4043 32.2475 20.6233 32.1568 20.7847 31.9954C20.9461 31.834 21.0368 31.615 21.0368 31.3867C21.041 31.3294 21.041 31.2719 21.0368 31.2146C21.0274 31.1607 21.01 31.1084 20.9852 31.0596C20.9663 31.0048 20.9403 30.9527 20.9077 30.9047L20.8044 30.7756C20.7225 30.6972 20.626 30.6358 20.5203 30.5948C20.3594 30.519 20.179 30.495 20.0039 30.5259L19.8489 30.5776L19.694 30.6551C19.6489 30.6868 19.6057 30.7213 19.5648 30.7584L19.4616 30.8875C19.429 30.9355 19.4029 30.9876 19.3841 31.0424C19.3593 31.0912 19.3419 31.1434 19.3324 31.1974C19.3282 31.2547 19.3282 31.3122 19.3324 31.3695C19.3324 31.5978 19.4231 31.8168 19.5846 31.9782C19.746 32.1396 19.9649 32.2303 20.1932 32.2303L20.176 32.2475ZM27.0624 32.2475C27.2907 32.2475 27.5096 32.1568 27.671 31.9954C27.8325 31.834 27.9232 31.615 27.9232 31.3867C27.9274 31.3294 27.9274 31.2719 27.9232 31.2146C27.9137 31.1607 27.8963 31.1084 27.8715 31.0596C27.8527 31.0048 27.8266 30.9527 27.794 30.9047L27.6907 30.7756C27.6071 30.6995 27.511 30.6384 27.4067 30.5948C27.1971 30.5087 26.962 30.5087 26.7525 30.5948C26.6482 30.6384 26.5521 30.6995 26.4684 30.7756L26.3651 30.9047C26.3325 30.9527 26.3065 31.0048 26.2876 31.0596C26.2628 31.1084 26.2454 31.1607 26.236 31.2146C26.2318 31.2719 26.2318 31.3294 26.236 31.3867C26.2369 31.6126 26.3266 31.829 26.4856 31.9893C26.6382 32.1454 26.8443 32.2377 27.0624 32.2475ZM24.48 21.918H22.7584C22.5301 21.918 22.3111 22.0087 22.1497 22.1701C21.9883 22.3316 21.8976 22.5505 21.8976 22.7788C21.8976 23.0071 21.9883 23.226 22.1497 23.3875C22.3111 23.5489 22.5301 23.6396 22.7584 23.6396H24.48C24.7083 23.6396 24.9272 23.5489 25.0887 23.3875C25.2501 23.226 25.3408 23.0071 25.3408 22.7788C25.3408 22.5505 25.2501 22.3316 25.0887 22.1701C24.9272 22.0087 24.7083 21.918 24.48 21.918ZM28.7839 19.3356H18.4544C17.7695 19.3356 17.1127 19.6077 16.6284 20.092C16.1441 20.5763 15.872 21.2331 15.872 21.918V32.2475C15.8735 32.7803 16.0398 33.2996 16.348 33.7342C16.6562 34.1688 17.0913 34.4974 17.5936 34.675V35.6907C17.5936 35.919 17.6843 36.138 17.8457 36.2994C18.0072 36.4608 18.2261 36.5515 18.4544 36.5515C18.6827 36.5515 18.9017 36.4608 19.0631 36.2994C19.2245 36.138 19.3152 35.919 19.3152 35.6907V34.8299H27.9232V35.6907C27.9232 35.919 28.0138 36.138 28.1753 36.2994C28.3367 36.4608 28.5556 36.5515 28.7839 36.5515C29.0122 36.5515 29.2312 36.4608 29.3926 36.2994C29.5541 36.138 29.6447 35.919 29.6447 35.6907V34.675C30.1471 34.4974 30.5821 34.1688 30.8904 33.7342C31.1986 33.2996 31.3648 32.7803 31.3663 32.2475V21.918C31.3663 21.2331 31.0943 20.5763 30.61 20.092C30.1257 19.6077 29.4688 19.3356 28.7839 19.3356ZM29.6447 32.2475C29.6447 32.4758 29.5541 32.6948 29.3926 32.8562C29.2312 33.0176 29.0122 33.1083 28.7839 33.1083H18.4544C18.2261 33.1083 18.0072 33.0176 17.8457 32.8562C17.6843 32.6948 17.5936 32.4758 17.5936 32.2475V29.6652H29.6447V32.2475ZM29.6447 27.9436H17.5936V21.918C17.5936 21.6897 17.6843 21.4708 17.8457 21.3093C18.0072 21.1479 18.2261 21.0572 18.4544 21.0572H28.7839C29.0122 21.0572 29.2312 21.1479 29.3926 21.3093C29.5541 21.4708 29.6447 21.6897 29.6447 21.918V27.9436Z" fill="white"/>
</g>
<defs>
<filter id="filter0_d_498_384" x="0.0691681" y="0.465546" width="47" height="54.5" filterUnits="userSpaceOnUse" color-interpolation-filters="sRGB">
<feFlood flood-opacity="0" result="BackgroundImageFix"/>
<feColorMatrix in="SourceAlpha" type="matrix" values="0 0 0 0 0 0 0 0 0 0 0 0 0 0 0 0 0 0 127 0" result="hardAlpha"/>
<feOffset dy="4"/>
<feGaussianBlur stdDeviation="2"/>
<feComposite in2="hardAlpha" operator="out"/>
<feColorMatrix type="matrix" values="0 0 0 0 0 0 0 0 0 0 0 0 0 0 0 0 0 0 0.25 0"/>
<feBlend mode="normal" in2="BackgroundImageFix" result="effect1_dropShadow_498_384"/>
<feBlend mode="normal" in="SourceGraphic" in2="effect1_dropShadow_498_384" result="shape"/>
</filter>
</defs>
</svg>
