<svg width="27" height="27" viewBox="0 0 27 27" fill="none" xmlns="http://www.w3.org/2000/svg">
<g clip-path="url(#clip0_498_386)">
<path d="M9.5017 16.6072C9.71667 16.684 9.95337 16.6723 10.1597 16.5747C10.3661 16.477 10.5252 16.3014 10.602 16.0864C10.6253 16.0339 10.6447 15.9797 10.66 15.9243C10.6693 15.8704 10.6705 15.8153 10.6635 15.761C10.6643 15.703 10.6573 15.6452 10.6427 15.589L10.5889 15.4327C10.5382 15.3313 10.468 15.241 10.3823 15.1668C10.2563 15.0413 10.0945 14.9579 9.91917 14.9281L9.75589 14.9246L9.58391 14.9454C9.53075 14.9601 9.47853 14.9781 9.42755 14.9992L9.28682 15.086C9.23999 15.1202 9.19791 15.1605 9.1617 15.2058C9.12191 15.2434 9.08794 15.2867 9.06091 15.3343C9.03764 15.3868 9.01827 15.441 9.00295 15.4964C8.92609 15.7114 8.93778 15.9481 9.03544 16.1544C9.1331 16.3608 9.30874 16.5199 9.52371 16.5968L9.5017 16.6072ZM15.9861 18.9255C16.201 19.0024 16.4377 18.9907 16.6441 18.893C16.8504 18.7954 17.0096 18.6197 17.0864 18.4048C17.1097 18.3522 17.1291 18.298 17.1444 18.2426C17.1537 18.1887 17.1548 18.1337 17.1479 18.0794C17.1486 18.0214 17.1416 17.9635 17.1271 17.9074L17.0733 17.751C17.0201 17.6513 16.9502 17.5613 16.8667 17.4852C16.6983 17.3336 16.477 17.2544 16.2507 17.2649C16.1378 17.2709 16.0267 17.2961 15.9223 17.3395L15.7816 17.4263C15.7348 17.4605 15.6927 17.5008 15.6565 17.5461C15.6167 17.5837 15.5827 17.627 15.5557 17.6747C15.5324 17.7272 15.5131 17.7814 15.4977 17.8368C15.4226 18.0497 15.4342 18.2837 15.5299 18.4882C15.621 18.6865 15.7841 18.8428 15.9861 18.9255ZM17.0319 8.32957L15.4109 7.74998C15.1959 7.67312 14.9592 7.68481 14.7528 7.78247C14.5465 7.88013 14.3874 8.05577 14.3105 8.27074C14.2337 8.48571 14.2453 8.7224 14.343 8.92876C14.4407 9.13511 14.6163 9.29422 14.8313 9.37107L16.4524 9.95066C16.6673 10.0275 16.904 10.0158 17.1104 9.91817C17.3167 9.82051 17.4758 9.64488 17.5527 9.42991C17.6296 9.21494 17.6179 8.97824 17.5202 8.77188C17.4225 8.56553 17.2469 8.40642 17.0319 8.32957ZM21.9541 7.34689L12.2275 3.86938C11.5826 3.6388 10.8725 3.67386 10.2534 3.96685C9.63437 4.25983 9.15705 4.78673 8.92647 5.43164L5.44896 15.1582C5.27101 15.6604 5.25274 16.2053 5.39666 16.7183C5.54057 17.2313 5.83964 17.6872 6.25284 18.0235L5.91089 18.98C5.83403 19.1949 5.84572 19.4316 5.94338 19.638C6.04104 19.8444 6.21667 20.0035 6.43164 20.0803C6.64661 20.1572 6.88331 20.1455 7.08966 20.0478C7.29602 19.9502 7.45512 19.7745 7.53198 19.5596L7.82177 18.749L15.9272 21.6469L15.6375 22.4575C15.5606 22.6725 15.5723 22.9092 15.6699 23.1155C15.7676 23.3219 15.9432 23.481 16.1582 23.5578C16.3732 23.6347 16.6099 23.623 16.8162 23.5253C17.0226 23.4277 17.1817 23.252 17.2585 23.0371L17.6005 22.0806C18.1333 22.0825 18.6536 21.9196 19.0901 21.6141C19.5267 21.3086 19.858 20.8756 20.0388 20.3745L23.5163 10.6479C23.7469 10.003 23.7118 9.2929 23.4189 8.67384C23.1259 8.05478 22.599 7.57746 21.9541 7.34689ZM18.4177 19.7949C18.3409 20.0099 18.1818 20.1855 17.9754 20.2832C17.769 20.3808 17.5323 20.3925 17.3174 20.3156L7.59081 16.8381C7.37584 16.7613 7.20021 16.6022 7.10255 16.3958C7.00489 16.1895 6.9932 15.9528 7.07006 15.7378L7.93944 13.3061L19.2871 17.3632L18.4177 19.7949ZM19.8667 15.7421L8.51902 11.6851L10.5476 6.01123C10.6244 5.79626 10.7835 5.62062 10.9899 5.52296C11.1962 5.4253 11.4329 5.41361 11.6479 5.49047L21.3745 8.96798C21.5894 9.04484 21.7651 9.20395 21.8627 9.4103C21.9604 9.61665 21.9721 9.85335 21.8952 10.0683L19.8667 15.7421Z" fill="white"/>
</g>
<defs>
<clipPath id="clip0_498_386">
<rect width="20.6591" height="20.6591" fill="white" transform="translate(7.41849 0.345062) rotate(19.6734)"/>
</clipPath>
</defs>
</svg>
