<svg width="22" height="22" viewBox="0 0 22 22" fill="none" xmlns="http://www.w3.org/2000/svg">
<path d="M8.17601 15.2475C8.40431 15.2475 8.62325 15.1568 8.78468 14.9954C8.94611 14.834 9.0368 14.615 9.0368 14.3867C9.04103 14.3294 9.04103 14.2719 9.0368 14.2146C9.02738 14.1607 9.00997 14.1084 8.98515 14.0596C8.96631 14.0048 8.94026 13.9527 8.90768 13.9047L8.80439 13.7756C8.72252 13.6972 8.62599 13.6358 8.52033 13.5948C8.35942 13.519 8.17899 13.495 8.00385 13.5259L7.84891 13.5776L7.69396 13.6551C7.64887 13.6868 7.60575 13.7213 7.56485 13.7584L7.46155 13.8875C7.42897 13.9355 7.40292 13.9876 7.38408 14.0424C7.35926 14.0912 7.34185 14.1434 7.33243 14.1974C7.32821 14.2547 7.32821 14.3122 7.33243 14.3695C7.33243 14.5978 7.42312 14.8168 7.58455 14.9782C7.74598 15.1396 7.96493 15.2303 8.19323 15.2303L8.17601 15.2475ZM15.0624 15.2475C15.2907 15.2475 15.5096 15.1568 15.671 14.9954C15.8325 14.834 15.9232 14.615 15.9232 14.3867C15.9274 14.3294 15.9274 14.2719 15.9232 14.2146C15.9137 14.1607 15.8963 14.1084 15.8715 14.0596C15.8527 14.0048 15.8266 13.9527 15.794 13.9047L15.6907 13.7756C15.6071 13.6995 15.511 13.6384 15.4067 13.5948C15.1971 13.5087 14.962 13.5087 14.7525 13.5948C14.6482 13.6384 14.5521 13.6995 14.4684 13.7756L14.3651 13.9047C14.3325 13.9527 14.3065 14.0048 14.2876 14.0596C14.2628 14.1084 14.2454 14.1607 14.236 14.2146C14.2318 14.2719 14.2318 14.3294 14.236 14.3867C14.2369 14.6126 14.3266 14.829 14.4856 14.9893C14.6382 15.1454 14.8443 15.2377 15.0624 15.2475ZM12.48 4.91801H10.7584C10.5301 4.91801 10.3111 5.0087 10.1497 5.17013C9.98829 5.33156 9.8976 5.5505 9.8976 5.7788C9.8976 6.0071 9.98829 6.22604 10.1497 6.38747C10.3111 6.5489 10.5301 6.63959 10.7584 6.63959H12.48C12.7083 6.63959 12.9272 6.5489 13.0887 6.38747C13.2501 6.22604 13.3408 6.0071 13.3408 5.7788C13.3408 5.5505 13.2501 5.33156 13.0887 5.17013C12.9272 5.0087 12.7083 4.91801 12.48 4.91801ZM16.7839 2.33562H6.45442C5.76953 2.33562 5.11269 2.6077 4.6284 3.09199C4.14411 3.57628 3.87204 4.23312 3.87204 4.91801V15.2475C3.87354 15.7803 4.03979 16.2996 4.34801 16.7342C4.65622 17.1688 5.09131 17.4974 5.59363 17.675V18.6907C5.59363 18.919 5.68432 19.138 5.84575 19.2994C6.00718 19.4608 6.22612 19.5515 6.45442 19.5515C6.68272 19.5515 6.90166 19.4608 7.06309 19.2994C7.22452 19.138 7.31521 18.919 7.31521 18.6907V17.8299H15.9232V18.6907C15.9232 18.919 16.0138 19.138 16.1753 19.2994C16.3367 19.4608 16.5556 19.5515 16.7839 19.5515C17.0122 19.5515 17.2312 19.4608 17.3926 19.2994C17.5541 19.138 17.6447 18.919 17.6447 18.6907V17.675C18.1471 17.4974 18.5821 17.1688 18.8904 16.7342C19.1986 16.2996 19.3648 15.7803 19.3663 15.2475V4.91801C19.3663 4.23312 19.0943 3.57628 18.61 3.09199C18.1257 2.6077 17.4688 2.33562 16.7839 2.33562ZM17.6447 15.2475C17.6447 15.4758 17.5541 15.6948 17.3926 15.8562C17.2312 16.0176 17.0122 16.1083 16.7839 16.1083H6.45442C6.22612 16.1083 6.00718 16.0176 5.84575 15.8562C5.68432 15.6948 5.59363 15.4758 5.59363 15.2475V12.6652H17.6447V15.2475ZM17.6447 10.9436H5.59363V4.91801C5.59363 4.68971 5.68432 4.47076 5.84575 4.30933C6.00718 4.1479 6.22612 4.05721 6.45442 4.05721H16.7839C17.0122 4.05721 17.2312 4.1479 17.3926 4.30933C17.5541 4.47076 17.6447 4.68971 17.6447 4.91801V10.9436Z" fill="white"/>
</svg>
