<svg width="27" height="27" viewBox="0 0 27 27" fill="none" xmlns="http://www.w3.org/2000/svg">
<path d="M18.3103 15.8841L14.5457 13.0607V7.30941C14.5457 6.73112 14.0783 6.26369 13.5 6.26369C12.9217 6.26369 12.4543 6.73112 12.4543 7.30941V13.5836C12.4543 13.913 12.6091 14.2236 12.8726 14.4202L17.0554 17.5573C17.2436 17.6985 17.4632 17.7665 17.6817 17.7665C18.0007 17.7665 18.3144 17.6232 18.5194 17.3471C18.8666 16.8859 18.7725 16.2303 18.3103 15.8841Z" fill="#233A8A"/>
<path d="M13.5 0C6.05565 0 0 6.05565 0 13.5C0 20.9444 6.05565 27 13.5 27C20.9444 27 27 20.9444 27 13.5C27 6.05565 20.9444 0 13.5 0ZM13.5 24.9086C7.21011 24.9086 2.09139 19.7899 2.09139 13.5C2.09139 7.21011 7.21011 2.09139 13.5 2.09139C19.7909 2.09139 24.9086 7.21011 24.9086 13.5C24.9086 19.7899 19.7899 24.9086 13.5 24.9086Z" fill="#233A8A"/>
</svg>
