<svg width="27" height="27" viewBox="0 0 27 27" fill="none" xmlns="http://www.w3.org/2000/svg">
<path d="M24.0469 4.21875H2.95312C1.32479 4.21875 0 5.54354 0 7.17188V19.8281C0 21.4565 1.32479 22.7812 2.95312 22.7812H24.0469C25.6752 22.7812 27 21.4565 27 19.8281V7.17188C27 5.54354 25.6752 4.21875 24.0469 4.21875ZM2.95312 5.90625H24.0469C24.7447 5.90625 25.3125 6.47404 25.3125 7.17188V8.85938H1.6875V7.17188C1.6875 6.47404 2.25529 5.90625 2.95312 5.90625ZM24.0469 21.0938H2.95312C2.25529 21.0938 1.6875 20.526 1.6875 19.8281V10.5469H25.3125V19.8281C25.3125 20.526 24.7447 21.0938 24.0469 21.0938Z" fill="#233A8A"/>
<path d="M5.90625 18.5625H5.0625C4.59654 18.5625 4.21875 18.1847 4.21875 17.7188V16.875C4.21875 16.409 4.59654 16.0312 5.0625 16.0312H5.90625C6.37221 16.0312 6.75 16.409 6.75 16.875V17.7188C6.75 18.1847 6.37221 18.5625 5.90625 18.5625Z" fill="#233A8A"/>
</svg>
