<svg width="27" height="27" viewBox="0 0 27 27" fill="none" xmlns="http://www.w3.org/2000/svg">
<path d="M26.1562 7.59375C25.6902 7.59375 25.3125 7.21596 25.3125 6.75V2.42578C25.3125 2.01867 24.9813 1.6875 24.5742 1.6875H20.25C19.784 1.6875 19.4062 1.30971 19.4062 0.84375C19.4062 0.377789 19.784 0 20.25 0H24.5742C25.9118 0 27 1.08823 27 2.42578V6.75C27 7.21596 26.6223 7.59375 26.1562 7.59375Z" fill="#233A8A"/>
<path d="M0.84375 7.59375C0.377736 7.59375 0 7.21596 0 6.75V2.42578C0 1.08823 1.08823 0 2.42578 0H6.75C7.21601 0 7.59375 0.377789 7.59375 0.84375C7.59375 1.30971 7.21601 1.6875 6.75 1.6875H2.42578C2.01867 1.6875 1.6875 2.01867 1.6875 2.42578V6.75C1.6875 7.21596 1.30976 7.59375 0.84375 7.59375Z" fill="#233A8A"/>
<path d="M6.75 27H2.42578C1.08823 27 0 25.9118 0 24.5742V20.25C0 19.784 0.377736 19.4062 0.84375 19.4062C1.30976 19.4062 1.6875 19.784 1.6875 20.25V24.5742C1.6875 24.9813 2.01867 25.3125 2.42578 25.3125H6.75C7.21601 25.3125 7.59375 25.6903 7.59375 26.1562C7.59375 26.6222 7.21601 27 6.75 27Z" fill="#233A8A"/>
<path d="M24.5742 27H20.25C19.784 27 19.4062 26.6222 19.4062 26.1562C19.4062 25.6903 19.784 25.3125 20.25 25.3125H24.5742C24.9813 25.3125 25.3125 24.9813 25.3125 24.5742V20.25C25.3125 19.784 25.6902 19.4062 26.1562 19.4062C26.6223 19.4062 27 19.784 27 20.25V24.5742C27 25.9118 25.9118 27 24.5742 27Z" fill="#233A8A"/>
<path d="M10.2305 12.6562H5.80078C4.46323 12.6562 3.375 11.568 3.375 10.2305V5.80078C3.375 4.46323 4.46323 3.375 5.80078 3.375H10.2305C11.568 3.375 12.6562 4.46323 12.6562 5.80078V10.2305C12.6562 11.568 11.568 12.6562 10.2305 12.6562ZM5.80078 5.0625C5.39367 5.0625 5.0625 5.39367 5.0625 5.80078V10.2305C5.0625 10.6376 5.39367 10.9688 5.80078 10.9688H10.2305C10.6376 10.9688 10.9688 10.6376 10.9688 10.2305V5.80078C10.9688 5.39367 10.6376 5.0625 10.2305 5.0625H5.80078Z" fill="#233A8A"/>
<path d="M10.2305 23.625H5.80078C4.46323 23.625 3.375 22.5368 3.375 21.1992V16.7695C3.375 15.432 4.46323 14.3438 5.80078 14.3438H10.2305C11.568 14.3438 12.6562 15.432 12.6562 16.7695V21.1992C12.6562 22.5368 11.568 23.625 10.2305 23.625ZM5.80078 16.0312C5.39367 16.0312 5.0625 16.3624 5.0625 16.7695V21.1992C5.0625 21.6063 5.39367 21.9375 5.80078 21.9375H10.2305C10.6376 21.9375 10.9688 21.6063 10.9688 21.1992V16.7695C10.9688 16.3624 10.6376 16.0312 10.2305 16.0312H5.80078Z" fill="#233A8A"/>
<path d="M21.1992 12.6562H16.7695C15.432 12.6562 14.3438 11.568 14.3438 10.2305V5.80078C14.3438 4.46323 15.432 3.375 16.7695 3.375H21.1992C22.5368 3.375 23.625 4.46323 23.625 5.80078V10.2305C23.625 11.568 22.5368 12.6562 21.1992 12.6562ZM16.7695 5.0625C16.3624 5.0625 16.0312 5.39367 16.0312 5.80078V10.2305C16.0312 10.6376 16.3624 10.9688 16.7695 10.9688H21.1992C21.6063 10.9688 21.9375 10.6376 21.9375 10.2305V5.80078C21.9375 5.39367 21.6063 5.0625 21.1992 5.0625H16.7695Z" fill="#233A8A"/>
<path d="M22.2539 18.5625H20.25V15.7148C20.25 14.9588 19.635 14.3438 18.8789 14.3438H15.7148C14.9588 14.3438 14.3438 14.9588 14.3438 15.7148V18.8789C14.3438 19.6349 14.9588 20.25 15.7148 20.25H18.5625V22.2539C18.5625 23.0099 19.1775 23.625 19.9336 23.625H22.2539C23.01 23.625 23.625 23.0099 23.625 22.2539V19.9336C23.625 19.1776 23.01 18.5625 22.2539 18.5625ZM16.0312 16.0312H18.5625V18.5625H16.0312V16.0312ZM21.9375 21.9375H20.25V20.25H21.9375V21.9375Z" fill="#233A8A"/>
<path d="M8.4375 9.28125H7.59375C7.12774 9.28125 6.75 8.90346 6.75 8.4375V7.59375C6.75 7.12779 7.12774 6.75 7.59375 6.75H8.4375C8.90351 6.75 9.28125 7.12779 9.28125 7.59375V8.4375C9.28125 8.90346 8.90351 9.28125 8.4375 9.28125Z" fill="#233A8A"/>
<path d="M19.4062 9.28125H18.5625C18.0965 9.28125 17.7188 8.90346 17.7188 8.4375V7.59375C17.7188 7.12779 18.0965 6.75 18.5625 6.75H19.4062C19.8723 6.75 20.25 7.12779 20.25 7.59375V8.4375C20.25 8.90346 19.8723 9.28125 19.4062 9.28125Z" fill="#233A8A"/>
<path d="M8.4375 20.25H7.59375C7.12774 20.25 6.75 19.8722 6.75 19.4062V18.5625C6.75 18.0965 7.12774 17.7188 7.59375 17.7188H8.4375C8.90351 17.7188 9.28125 18.0965 9.28125 18.5625V19.4062C9.28125 19.8722 8.90351 20.25 8.4375 20.25Z" fill="#233A8A"/>
</svg>
