<svg width="45" height="45" viewBox="0 0 45 45" fill="none" xmlns="http://www.w3.org/2000/svg">
<circle cx="22.5" cy="22.5" r="20.5" fill="#D41411" stroke="white" stroke-width="4"/>
<path d="M14.7512 20.7526C14.5163 20.5353 14.6439 20.1425 14.9617 20.1049L19.4644 19.5708C19.5939 19.5554 19.7064 19.4741 19.761 19.3557L21.6602 15.2383C21.7942 14.9478 22.2073 14.9477 22.3413 15.2383L24.2405 19.3556C24.2951 19.474 24.4069 19.5556 24.5364 19.5709L29.0393 20.1049C29.3571 20.1425 29.4843 20.5354 29.2494 20.7527L25.9208 23.8314C25.8251 23.92 25.7824 24.0518 25.8079 24.1797L26.6913 28.627C26.7536 28.9408 26.4196 29.184 26.1404 29.0277L22.1839 26.8125C22.0701 26.7488 21.9318 26.7491 21.818 26.8128L17.8611 29.0271C17.5818 29.1834 17.2472 28.9408 17.3096 28.627L18.1931 24.18C18.2185 24.0521 18.176 23.92 18.0803 23.8314L14.7512 20.7526Z" stroke="white" stroke-width="2" stroke-linecap="round" stroke-linejoin="round"/>
</svg>
