<svg width="24" height="23" viewBox="0 0 24 23" fill="none" xmlns="http://www.w3.org/2000/svg">
<path d="M13.9167 5.75H6.25C5.35695 5.75 4.91017 5.75 4.55794 5.8959C4.08831 6.09043 3.71543 6.46377 3.5209 6.93341C3.375 7.28564 3.375 7.73217 3.375 8.62522C4.96282 8.62522 6.25 9.91196 6.25 11.4998C6.25 13.0876 4.96282 14.375 3.375 14.375C3.375 15.2681 3.375 15.7146 3.5209 16.0668C3.71543 16.5364 4.08831 16.9095 4.55794 17.104C4.91017 17.2499 5.35695 17.25 6.25 17.25H13.9167M13.9167 5.75H17.75C18.6431 5.75 19.0896 5.75 19.4418 5.8959C19.9114 6.09043 20.2845 6.46377 20.479 6.93341C20.6249 7.28564 20.6249 7.73217 20.6249 8.62522C19.0371 8.62522 17.75 9.91218 17.75 11.5C17.75 13.0878 19.0371 14.375 20.6249 14.375C20.6249 15.2681 20.6249 15.7146 20.479 16.0668C20.2845 16.5364 19.9114 16.9095 19.4418 17.104C19.0896 17.2499 18.6431 17.25 17.75 17.25H13.9167M13.9167 5.75V17.25" stroke="white" stroke-width="2" stroke-linecap="round" stroke-linejoin="round"/>
</svg>
