<svg width="101" height="101" viewBox="0 0 101 101" fill="none" xmlns="http://www.w3.org/2000/svg">
<path d="M42.2942 88.3826C42.4861 88.5679 42.7179 88.7113 42.9441 88.769L60.6426 93.2892C61.0939 93.4045 61.3561 93.1329 61.2251 92.6859L60.439 90.0035L60.2518 90.1871L45.3668 86.3956C45.0931 86.331 44.881 86.2023 44.7174 86.0442C44.5048 85.839 44.3739 85.5847 44.2938 85.3596L40.904 75.806L39.6377 71.4857L40.4576 70.6365C41.7032 69.3465 42.3004 66.892 41.7907 65.1537C41.6427 64.6484 41.4174 64.2592 41.1417 63.993C40.4693 63.3438 39.4966 63.427 38.613 64.342L37.7931 65.1913L30.8543 41.5168L31.6746 40.6673C32.9198 39.3776 33.5173 36.9223 33.0078 35.1838C32.8598 34.6784 32.6346 34.2892 32.3591 34.0232C31.6865 33.3738 30.7132 33.457 29.8297 34.372L29.0092 35.2218L28.183 32.4013C28.183 32.4013 26.0292 25.3794 26.0587 24.038L23.8057 23.4627C23.3542 23.3472 23.0923 23.6184 23.2235 24.0657L41.8853 87.7466C41.9505 87.9703 42.1023 88.1973 42.2942 88.3826Z" fill="#E6E6E6"/>
<path d="M42.2942 88.3826C42.4861 88.5679 42.7179 88.7113 42.9441 88.769L60.6426 93.2892C61.0939 93.4045 61.3561 93.1329 61.2251 92.6859L60.439 90.0035L60.2518 90.1871L45.3668 86.3956C45.0931 86.331 44.881 86.2023 44.7174 86.0442C44.5048 85.839 44.3739 85.5847 44.2938 85.3596L40.904 75.806L39.6377 71.4857L40.4576 70.6365C41.7032 69.3465 42.3004 66.892 41.7907 65.1537C41.6427 64.6484 41.4174 64.2592 41.1417 63.993C40.4693 63.3438 39.4966 63.427 38.613 64.342L37.7931 65.1913L30.8543 41.5168L31.6746 40.6673C32.9198 39.3776 33.5173 36.9223 33.0078 35.1838C32.8598 34.6784 32.6346 34.2892 32.3591 34.0232C31.6865 33.3738 30.7132 33.457 29.8297 34.372L29.0092 35.2218L28.183 32.4013C28.183 32.4013 26.0292 25.3794 26.0587 24.038L23.8057 23.4627C23.3542 23.3472 23.0923 23.6184 23.2235 24.0657L41.8853 87.7466C41.9505 87.9703 42.1023 88.1973 42.2942 88.3826Z" fill="#E5E5E5"/>
<path d="M42.659 65.0441L39.7546 66.3612L37.7931 65.1912L40.1602 61.4402L42.659 65.0441Z" fill="#2E373A"/>
<path d="M33.2007 34.6256L30.1863 35.8686L29.009 35.2215L31.4922 32.2327L33.2007 34.6256Z" fill="#2E373A"/>
<path fill-rule="evenodd" clip-rule="evenodd" d="M40.6848 63.9304L40.6847 63.9299L43.3423 64.6479C43.8876 64.8549 44.3401 65.3976 44.5887 66.2456C45.1336 68.1047 44.495 70.7305 43.1631 72.1099C42.4731 72.8245 41.7297 73.0611 41.0984 72.8623L38.7307 72.2251C38.0732 72.1039 37.5144 71.534 37.2279 70.5544C36.683 68.6958 37.3214 66.0698 38.6462 64.6977C39.3281 63.9914 40.0595 63.7501 40.6848 63.9304Z" fill="#2E373A"/>
<path fill-rule="evenodd" clip-rule="evenodd" d="M37.2275 70.5547C37.7721 72.414 39.2943 72.8018 40.6188 71.43C41.9505 70.0509 42.5891 67.4251 42.0442 65.5661C41.4992 63.7076 39.9774 63.3189 38.6458 64.6979C37.3209 66.07 36.6826 68.6961 37.2275 70.5547Z" fill="#555E61"/>
<path fill-rule="evenodd" clip-rule="evenodd" d="M37.4109 70.3652C37.9142 72.0823 39.3201 72.4408 40.5442 71.1731C41.775 69.8994 42.3648 67.4735 41.8616 65.7557C41.358 64.0383 39.9526 63.6793 38.7216 64.9543C37.4978 66.2218 36.9075 68.6475 37.4109 70.3652Z" fill="#2E373A"/>
<path fill-rule="evenodd" clip-rule="evenodd" d="M38.7501 65.679C37.8418 66.6197 37.4065 68.4098 37.7783 69.6779C38.1496 70.9454 39.187 71.2103 40.0955 70.2694C41.0035 69.329 41.4389 67.5388 41.0678 66.271C40.696 65.0029 39.6583 64.7384 38.7501 65.679Z" fill="url(#paint0_linear_2003_786)"/>
<path fill-rule="evenodd" clip-rule="evenodd" d="M41.0678 66.271C41.1179 66.4417 41.1518 66.6226 41.1732 66.8091C41.1602 66.7491 41.1465 66.6893 41.1294 66.6316C40.8134 65.553 39.9311 65.3282 39.1583 66.1286C38.3852 66.9292 38.0148 68.4515 38.3308 69.53C38.645 70.6011 39.5176 70.8296 40.2862 70.0483C40.2252 70.1256 40.1618 70.2007 40.0955 70.2694C39.187 71.2103 38.1496 70.9454 37.7783 69.6779C37.4065 68.4098 37.8418 66.6197 38.7501 65.679C39.6583 64.7384 40.696 65.0029 41.0678 66.271Z" fill="url(#paint1_linear_2003_786)"/>
<path fill-rule="evenodd" clip-rule="evenodd" d="M41.015 66.1169C40.5865 65.2475 39.7315 65.1374 38.971 65.9251C38.1146 66.812 37.7045 68.5002 38.0549 69.6956C38.284 70.479 38.784 70.8534 39.3415 70.7707C38.6721 70.9891 38.0484 70.601 37.778 69.6779C37.4062 68.4098 37.8415 66.6197 38.7498 65.679C39.6196 64.7781 40.6063 64.9855 41.015 66.1169Z" fill="url(#paint2_linear_2003_786)"/>
<path fill-rule="evenodd" clip-rule="evenodd" d="M39.6467 66.8844C39.1625 67.3859 38.9301 68.3391 39.1283 69.0147C39.3259 69.6898 39.8789 69.8313 40.3628 69.3301C40.8468 68.8289 41.0789 67.8754 40.8809 67.1995C40.683 66.5237 40.1306 66.3831 39.6467 66.8844Z" fill="url(#paint3_linear_2003_786)"/>
<path fill-rule="evenodd" clip-rule="evenodd" d="M39.759 67.6071C39.5973 67.7745 39.5202 68.0934 39.5868 68.3189C39.652 68.5437 39.8372 68.5913 39.9987 68.4241C40.1605 68.2565 40.237 67.9379 40.1717 67.7131C40.1056 67.487 39.9208 67.4395 39.759 67.6071Z" fill="url(#paint4_linear_2003_786)"/>
<path d="M40.4108 67.8964C40.3422 67.9674 40.3102 68.1017 40.3375 68.197C40.3656 68.292 40.4434 68.3122 40.5115 68.2417C40.5801 68.1707 40.6125 68.0363 40.5844 67.9413C40.5569 67.8462 40.4786 67.8261 40.4108 67.8964Z" fill="#343433"/>
<path d="M40.1621 67.0047C40.0935 67.0757 40.0609 67.2095 40.0888 67.3048C40.1164 67.3999 40.1941 67.4195 40.2622 67.349C40.3305 67.2782 40.3636 67.1439 40.3354 67.0493C40.3078 66.9537 40.2304 66.9339 40.1621 67.0047Z" fill="#343433"/>
<path d="M39.4554 67.3528C39.387 67.4236 39.3544 67.5579 39.3828 67.6532C39.4104 67.7488 39.4884 67.7686 39.5568 67.6978C39.6249 67.6273 39.6574 67.493 39.6298 67.3974C39.6014 67.3021 39.5237 67.282 39.4554 67.3528Z" fill="#343433"/>
<path d="M39.2879 68.4431C39.2195 68.5139 39.1873 68.648 39.2149 68.743C39.2428 68.8389 39.321 68.8585 39.389 68.7879C39.4571 68.7174 39.49 68.5828 39.4615 68.4876C39.4342 68.3923 39.3562 68.3723 39.2879 68.4431Z" fill="#343433"/>
<path d="M39.8698 68.7577C39.8017 68.8282 39.7692 68.963 39.7969 69.0581C39.8255 69.1537 39.9027 69.1733 39.9708 69.1027C40.0396 69.0314 40.0724 68.8979 40.0441 68.8021C40.0164 68.707 39.9379 68.6871 39.8698 68.7577Z" fill="#343433"/>
<path fill-rule="evenodd" clip-rule="evenodd" d="M31.8727 34.0466L31.8732 34.0461L34.5305 34.7638C35.0758 34.971 35.5282 35.5131 35.7774 36.3622C36.322 38.221 35.6829 40.8467 34.3513 42.2258C33.6605 42.9412 32.9176 43.1778 32.2857 42.9781L29.9186 42.3419L29.9189 42.3416C29.2611 42.2212 28.7029 41.6508 28.4153 40.6712C27.8707 38.8124 28.5095 36.1864 29.8343 34.8143C30.5163 34.108 31.2479 33.8658 31.8727 34.0466Z" fill="#2E373A"/>
<path fill-rule="evenodd" clip-rule="evenodd" d="M28.4155 40.6713C28.9609 42.5304 30.4826 42.9183 31.8072 41.5464C33.139 40.167 33.7779 37.5415 33.2327 35.6822C32.6881 33.8235 31.1664 33.435 29.8345 34.8144C28.5097 36.1865 27.8709 38.8125 28.4155 40.6713Z" fill="#555E61"/>
<path fill-rule="evenodd" clip-rule="evenodd" d="M28.599 40.4813C29.1027 42.1981 30.5085 42.5572 31.7324 41.2896C32.9634 40.0157 33.5534 37.5897 33.0497 35.8718C32.5464 34.1542 31.1405 33.7951 29.9097 35.0698C28.6854 36.3379 28.0957 38.7637 28.599 40.4813Z" fill="#2E373A"/>
<path fill-rule="evenodd" clip-rule="evenodd" d="M29.9383 35.7955C29.0298 36.7364 28.595 38.5266 28.9663 39.7942C29.3378 41.0619 30.3757 41.3273 31.2842 40.3864C32.1925 39.4457 32.6273 37.655 32.2561 36.387C31.8848 35.1194 30.8468 34.8546 29.9383 35.7955Z" fill="url(#paint5_linear_2003_786)"/>
<path fill-rule="evenodd" clip-rule="evenodd" d="M32.2561 36.387C32.3065 36.558 32.34 36.7387 32.3622 36.9258C32.349 36.8656 32.335 36.8057 32.3182 36.7481C32.0019 35.6693 31.1194 35.4442 30.3468 36.2443C29.5737 37.0449 29.2033 38.5678 29.5194 39.6467C29.8332 40.7176 30.7064 40.9461 31.4751 40.1652C31.4135 40.2421 31.3508 40.3174 31.2842 40.3864C30.3757 41.3273 29.3378 41.0619 28.9663 39.7942C28.595 38.5266 29.0298 36.7364 29.9383 35.7955C30.8468 34.8546 31.8848 35.1194 32.2561 36.387Z" fill="url(#paint6_linear_2003_786)"/>
<path fill-rule="evenodd" clip-rule="evenodd" d="M32.203 36.2331C31.7757 35.3636 30.9202 35.2535 30.1596 36.0412C29.3033 36.9282 28.8923 38.6165 29.2435 39.8123C29.4723 40.5953 29.9718 40.9694 30.5301 40.8869C29.8608 41.1057 29.2365 40.7171 28.9661 39.7941C28.5948 38.5265 29.0296 36.7363 29.9381 35.7954C30.8082 34.8942 31.7947 35.1014 32.203 36.2331Z" fill="url(#paint7_linear_2003_786)"/>
<path fill-rule="evenodd" clip-rule="evenodd" d="M30.1084 36.878C29.6247 37.3789 29.3934 38.3332 29.5915 39.0088C29.789 39.6836 30.3421 39.8254 30.8261 39.3242C31.31 38.823 31.5413 37.8687 31.3439 37.1939C31.1458 36.5183 30.5929 36.3762 30.1084 36.878Z" fill="url(#paint8_linear_2003_786)"/>
<path fill-rule="evenodd" clip-rule="evenodd" d="M30.221 37.6009C30.0593 37.7683 29.9824 38.087 30.0481 38.3122C30.1142 38.5378 30.299 38.5853 30.4607 38.4179C30.6223 38.2505 30.6997 37.9314 30.6333 37.7062C30.5674 37.4811 30.3826 37.4335 30.221 37.6009Z" fill="url(#paint9_linear_2003_786)"/>
<path d="M30.8734 37.8908C30.8051 37.9616 30.7723 38.0956 30.8002 38.1915C30.8281 38.2862 30.9065 38.3066 30.9746 38.236C31.043 38.1652 31.0753 38.0302 31.0474 37.9355C31.0193 37.8398 30.9415 37.8202 30.8734 37.8908Z" fill="#343433"/>
<path d="M30.6241 36.9987C30.556 37.0692 30.5235 37.2035 30.5513 37.2989C30.5792 37.3941 30.6569 37.4132 30.7247 37.3429C30.7928 37.2724 30.8264 37.1381 30.7983 37.0431C30.7704 36.9478 30.6927 36.9277 30.6241 36.9987Z" fill="#343433"/>
<path d="M29.9176 37.3471C29.8493 37.4178 29.8167 37.5521 29.8448 37.6472C29.8722 37.7425 29.9507 37.7624 30.0191 37.6916C30.0872 37.6211 30.1194 37.4865 30.0918 37.3914C30.0639 37.2961 29.986 37.2763 29.9176 37.3471Z" fill="#343433"/>
<path d="M29.7508 38.4372C29.6825 38.508 29.6502 38.6425 29.6783 38.7376C29.7057 38.8329 29.7839 38.8525 29.852 38.782C29.9201 38.7115 29.9529 38.5769 29.9251 38.4821C29.8972 38.3868 29.8192 38.3664 29.7508 38.4372Z" fill="#343433"/>
<path d="M30.3326 38.7519C30.2645 38.8224 30.2319 38.9568 30.2595 39.0518C30.2874 39.1471 30.3653 39.167 30.4337 39.0962C30.502 39.0254 30.5347 38.8911 30.5067 38.7957C30.4789 38.701 30.4009 38.6812 30.3326 38.7519Z" fill="#343433"/>
<path d="M31.7134 36.7132C31.568 36.7695 31.4896 36.914 31.5378 37.0344C31.5865 37.1549 31.7443 37.2068 31.8889 37.1498C32.0351 37.0933 32.1139 36.9492 32.0645 36.8286C32.0157 36.7076 31.8593 36.6559 31.7134 36.7132Z" fill="#343433"/>
<path d="M31.123 36.1096C31.0058 36.2126 30.9604 36.3514 31.0205 36.4195C31.0813 36.4881 31.2248 36.46 31.3415 36.357C31.4581 36.2534 31.5044 36.1154 31.4444 36.0476C31.3837 35.9789 31.2401 36.0065 31.123 36.1096Z" fill="#343433"/>
<path d="M31.9295 37.8767C31.776 37.8428 31.6273 37.9319 31.5988 38.0746C31.5693 38.2173 31.6704 38.3604 31.8236 38.3934C31.9782 38.4263 32.1259 38.3378 32.1549 38.1956C32.1841 38.0526 32.0835 37.9101 31.9295 37.8767Z" fill="#343433"/>
<path d="M31.5734 39.1697C31.4513 39.0693 31.2854 39.0703 31.2024 39.172C31.1195 39.2736 31.1503 39.4371 31.2726 39.5379C31.3945 39.638 31.5607 39.6367 31.6436 39.5356C31.7263 39.4342 31.6958 39.2704 31.5734 39.1697Z" fill="#343433"/>
<path d="M30.8699 39.9705C30.7907 39.8341 30.6485 39.7686 30.5516 39.8239C30.4547 39.8786 30.4398 40.034 30.5191 40.1703C30.5983 40.3068 30.741 40.3727 30.8382 40.3173C30.9348 40.2622 30.9492 40.1069 30.8699 39.9705Z" fill="#343433"/>
<path d="M29.9321 39.9011C29.9191 39.7747 29.8686 39.676 29.8194 39.6809C29.7699 39.685 29.7408 39.7906 29.754 39.9168C29.7673 40.0435 29.8175 40.1423 29.8662 40.138C29.9162 40.1334 29.9456 40.0275 29.9321 39.9011Z" fill="#343433"/>
<path fill-rule="evenodd" clip-rule="evenodd" d="M44.7171 86.0442C44.8808 86.2022 45.0928 86.331 45.3665 86.3955L60.2515 90.187L60.4388 90.0034L64.266 86.253C64.266 86.253 75.3676 73.8232 76.0395 73.0158C76.7113 72.2072 76.5991 71.9142 76.5991 71.9142C76.5991 71.9142 60.1381 15.7476 59.7944 14.5747C59.6161 13.9661 59.4524 13.7032 59.3367 13.5915C59.229 13.4876 59.1625 13.5136 59.1625 13.5136L43.5619 9.52904C43.591 9.53763 43.6302 9.55844 43.6768 9.60344C43.7925 9.71517 43.9556 9.97754 44.1337 10.5858C44.4777 11.7591 60.9377 67.9256 60.9377 67.9256C60.9377 67.9256 61.0506 68.2194 60.3787 69.0274C59.7069 69.8349 48.6055 82.2639 48.6055 82.2639L44.7332 86.0585C44.7284 86.054 44.7232 86.0494 44.7182 86.0446C44.5053 85.8391 44.3739 85.5849 44.2935 85.3595C44.3736 85.5846 44.5045 85.8389 44.7171 86.0442ZM59.6878 83.762L59.6349 83.8168L54.8516 82.5779L54.9693 82.4559L54.9898 82.5441L59.6878 83.762ZM54.9898 82.5441L54.9693 82.4559L57.2408 80.1034L62.0237 81.3428L62.0445 81.4313L57.2612 80.1918L54.9898 82.5441ZM75.5011 72.4704C75.5477 72.5154 75.5522 72.5846 75.5043 72.6503C75.5043 72.6503 75.4764 72.6898 75.3743 72.8123C75.1422 73.0909 71.9729 76.6599 71.9729 76.6599C71.896 76.7458 71.7414 76.7927 71.6282 76.7644L58.0144 73.3127C57.9814 73.3043 57.9559 73.2905 57.9375 73.2728C57.8933 73.2301 57.894 73.1649 57.9482 73.104C57.9482 73.104 61.1868 69.4581 61.4218 69.1753C61.4906 69.0926 61.4906 69.0926 61.4906 69.0926C61.5523 69.0108 61.6952 68.9676 61.8084 68.996L75.4223 72.4288C75.4552 72.4371 75.4817 72.4517 75.5011 72.4704Z" fill="url(#paint10_linear_2003_786)"/>
<path d="M30.4886 18.5633C32.4616 16.632 38.2545 12.6843 40.1034 11.5151C41.9527 10.3459 43.5024 9.52432 43.5024 9.52432L43.5445 9.52415L43.5623 9.52881C43.6644 9.55988 43.884 9.73265 44.1341 10.5856C44.4781 11.7588 60.9381 67.9254 60.9381 67.9254C60.9381 67.9254 61.051 68.2192 60.3791 69.0272C59.7073 69.8347 48.6058 82.2637 48.6058 82.2637L44.7336 86.0583C44.5119 85.8504 44.376 85.5898 44.2939 85.3593L40.9041 75.8057L39.6378 71.4854L40.4577 70.6362C41.7033 69.3462 42.3005 66.8917 41.7908 65.1534C41.2815 63.4147 39.8587 63.0518 38.6132 64.3417L37.7932 65.1909L30.8544 41.5165L31.6747 40.667C32.9199 39.3773 33.5174 36.922 33.0079 35.1835C32.4984 33.4449 31.0753 33.0818 29.8298 34.3717L29.0093 35.2215L28.1831 32.401C28.1831 32.401 25.7867 24.5887 26.0841 23.8705C26.3817 23.1524 28.5158 20.4943 30.4886 18.5633Z" fill="#B61617"/>
<path d="M48.8192 60.7133L48.6666 60.6702L51.1986 58.0479L51.3515 58.0907L48.8192 60.7133Z" fill="#840000"/>
<path d="M51.1986 58.0477L41.6334 25.4078L41.7866 25.4513L51.3515 58.0905L51.1986 58.0477Z" fill="#EA494A"/>
<path d="M39.4795 28.1225L41.5742 25.9531L50.9617 57.9876L48.8675 60.1565L39.4795 28.1225Z" fill="#A9090A"/>
<path d="M41.5743 25.953L39.4796 28.1224L48.8676 60.1564L48.7658 60.2617L39.338 28.0915L41.5342 25.8169L41.5743 25.953Z" fill="#840000"/>
<path d="M39.4799 28.1223L48.8678 60.1563L48.7661 60.2617L39.3382 28.0914L39.4799 28.1223Z" fill="#EA494A"/>
<path d="M41.4295 26.1032L41.5742 25.9534L50.962 57.9874L50.8173 58.1372L41.4295 26.1032Z" fill="#CCCCCC"/>
<path d="M41.4295 26.1032L41.5742 25.9534L50.962 57.9874L50.8173 58.1372L41.4295 26.1032Z" fill="#870708"/>
<path d="M41.4293 26.1031L41.5743 25.953L41.5342 25.8169L41.4293 26.1031Z" fill="#CCCCCC"/>
<path d="M41.4293 26.1031L41.5743 25.953L41.5342 25.8169L41.4293 26.1031Z" fill="#6A0000"/>
<path d="M48.6152 60.9249L48.8197 60.7131L48.6671 60.6701L39.147 28.1855L39.05 28.286L48.6152 60.9249Z" fill="#CCCCCC"/>
<path d="M48.6152 60.9249L48.8197 60.7131L48.6671 60.6701L39.147 28.1855L39.05 28.286L48.6152 60.9249Z" fill="#921212"/>
<path d="M47.0249 81.3886L45.9395 77.6848L45.8821 77.7442L46.9673 81.4483L47.0249 81.3886Z" fill="#2E383B"/>
<path d="M46.9048 81.5131L45.8193 77.8093L45.762 77.8687L46.8476 81.5723L46.9048 81.5131Z" fill="#2E383B"/>
<path d="M46.7852 81.6376L45.6992 77.9343L45.6422 77.9934L46.7275 81.6973L46.7852 81.6376Z" fill="#2E383B"/>
<path d="M46.664 81.7627L45.5786 78.0588L45.5213 78.1182L46.6066 81.8221L46.664 81.7627Z" fill="#2E383B"/>
<path d="M46.5439 81.8869L45.4585 78.1831L45.4011 78.2426L46.4865 81.9463L46.5439 81.8869Z" fill="#2E383B"/>
<path d="M46.4233 82.0116L45.3379 78.3079L45.2803 78.3675L46.3659 82.0711L46.4233 82.0116Z" fill="#2E383B"/>
<path d="M46.3034 82.1362L45.2178 78.4326L45.1604 78.492L46.2458 82.1958L46.3034 82.1362Z" fill="#2E383B"/>
<path d="M46.1826 82.2611L45.0972 78.5574L45.0401 78.6165L46.1255 82.3203L46.1826 82.2611Z" fill="#2E383B"/>
<path d="M46.0624 82.3857L44.9771 78.6819L44.9197 78.7413L46.0051 82.4451L46.0624 82.3857Z" fill="#2E383B"/>
<path d="M45.9418 82.5102L44.8564 78.8064L44.7988 78.8661L45.8845 82.5696L45.9418 82.5102Z" fill="#2E383B"/>
<path d="M45.8217 82.635L44.7363 78.9312L44.6789 78.9906L45.7646 82.6942L45.8217 82.635Z" fill="#2E383B"/>
<path d="M45.7014 82.7597L44.6157 79.0562L44.5586 79.1153L45.644 82.8192L45.7014 82.7597Z" fill="#2E383B"/>
<path d="M45.5811 82.8842L44.4956 79.1804L44.4385 79.2395L45.5239 82.9434L45.5811 82.8842Z" fill="#2E383B"/>
<path d="M45.4609 83.009L44.3755 79.3052L44.3181 79.3646L45.4035 83.0684L45.4609 83.009Z" fill="#2E383B"/>
<path d="M45.3403 83.1338L44.2549 79.4299L44.1975 79.4893L45.2832 83.1929L45.3403 83.1338Z" fill="#2E383B"/>
<path d="M45.2202 83.2579L44.1343 79.5547L44.0771 79.6139L45.1626 83.3176L45.2202 83.2579Z" fill="#2E383B"/>
<path d="M45.0993 83.3827L44.0137 79.6792L43.9565 79.7384L45.0419 83.4422L45.0993 83.3827Z" fill="#2E383B"/>
<path d="M44.9795 83.5075L43.894 79.8037L43.8367 79.8631L44.9221 83.5669L44.9795 83.5075Z" fill="#2E383B"/>
<path d="M47.12 81.4131L45.9795 77.5217L46.1031 77.5463L47.2431 81.437L45.0082 83.7517L44.8852 83.7276L47.12 81.4131Z" fill="#EA494A"/>
<path d="M47.2427 81.4369L45.0078 83.7515L44.8847 83.7275L47.1195 81.4129L47.2427 81.4369Z" fill="#840000"/>
<path d="M43.7058 80.0293L43.7793 79.9531L44.8853 83.7277L45.0084 83.7517L44.846 83.9199L43.7058 80.0293Z" fill="#CCCCCC"/>
<path d="M43.7058 80.0293L43.7793 79.9531L44.8853 83.7277L45.0084 83.7517L44.846 83.9199L43.7058 80.0293Z" fill="#921212"/>
<path d="M52.4712 75.9131L51.6477 73.1028L51.7366 73.1207L52.5598 75.9308L50.2885 78.2831L50.1998 78.2655L52.4712 75.9131Z" fill="#EA494A"/>
<path d="M52.5591 75.931L50.2878 78.2833L50.1991 78.2657L52.4705 75.9133L52.5591 75.931Z" fill="#840000"/>
<path d="M50.1702 78.4051L50.2876 78.2835L50.199 78.2658L49.3999 75.5403L49.3468 75.5953L50.1702 78.4051Z" fill="#CCCCCC"/>
<path d="M50.1702 78.4051L50.2876 78.2835L50.199 78.2658L49.3999 75.5403L49.3468 75.5953L50.1702 78.4051Z" fill="#921212"/>
<path d="M57.2612 80.1917L62.0446 81.4312L62.0238 81.3427L57.2409 80.1033L54.9694 82.4558L54.9899 82.544L57.2612 80.1917Z" fill="#EA494A"/>
<path d="M57.2407 80.1033L54.9692 82.4558L54.9897 82.544L57.2611 80.1917L57.2407 80.1033Z" fill="#B61617"/>
<path fill-rule="evenodd" clip-rule="evenodd" d="M54.8516 82.5777L59.6349 83.8167L59.6878 83.7619L54.9899 82.544L54.9693 82.4558L54.8516 82.5777Z" fill="url(#paint11_linear_2003_786)"/>
<path fill-rule="evenodd" clip-rule="evenodd" d="M54.8516 82.5777L59.6349 83.8167L59.6878 83.7619L54.9899 82.544L54.9693 82.4558L54.8516 82.5777Z" fill="url(#paint12_linear_2003_786)"/>
<path d="M44.4248 30.2344C44.265 30.4 44.0805 30.3533 44.0149 30.1298L41.759 22.4316C41.6932 22.2078 41.7709 21.89 41.9311 21.7241L45.4591 18.0703C45.619 17.9047 45.8037 17.9518 45.869 18.175L48.1248 25.8733C48.1903 26.0969 48.1131 26.4152 47.9526 26.5814L44.4248 30.2344Z" fill="#141C1E"/>
<path d="M41.771 21.1776C41.6106 21.3437 41.4266 21.2964 41.3609 21.0731L39.1053 13.3745C39.0395 13.1513 39.1262 12.885 39.2981 12.7834L43.238 10.4488C43.41 10.3472 43.6037 10.4469 43.6692 10.6704L45.4708 16.8166C45.5364 17.0401 45.4586 17.3584 45.2985 17.5243L41.771 21.1776Z" fill="#141C1E"/>
<path d="M41.5029 21.1621C41.5807 21.2366 41.6738 21.1569 41.7105 21.1189L45.238 17.4655C45.3777 17.3208 45.4473 17.034 45.3904 16.8393L43.5889 10.6929C43.5716 10.6343 43.5434 10.5845 43.5067 10.5491C43.4413 10.4859 43.3597 10.4761 43.2826 10.5219L39.3423 12.8562C39.2032 12.9385 39.1323 13.1655 39.1864 13.3516L41.4422 21.0505C41.4564 21.0986 41.4773 21.1373 41.5029 21.1621Z" fill="#303E42"/>
<path d="M47.0794 39.2909C46.9193 39.4567 46.7348 39.4094 46.669 39.1861L44.413 31.488C44.3472 31.2643 44.425 30.9464 44.5851 30.7806L48.1128 27.127C48.273 26.9611 48.4569 27.0079 48.5227 27.2317L50.7787 34.9298C50.8442 35.1538 50.7668 35.4719 50.607 35.6375L47.0794 39.2909Z" fill="#141C1E"/>
<path d="M46.8113 39.2746C46.8891 39.3497 46.982 39.2697 47.0187 39.2317L50.5462 35.5783C50.686 35.4342 50.7554 35.1473 50.6983 34.9529L48.4422 27.2547C48.4281 27.2061 48.4074 27.1677 48.382 27.1432C48.304 27.0679 48.2108 27.1482 48.1744 27.1859L44.6466 30.8395C44.507 30.9841 44.4374 31.2704 44.4943 31.4652L46.7508 39.1633C46.7651 39.2114 46.7859 39.2501 46.8113 39.2746Z" fill="#303E42"/>
<path d="M52.3007 57.108C52.1408 57.2736 51.9558 57.2263 51.8906 57.003L49.6348 49.3046C49.5695 49.0809 49.6467 48.7625 49.8071 48.5969L53.3346 44.9435C53.4946 44.7779 53.6791 44.8247 53.7443 45.0484L56.0008 52.7461C56.0661 52.9699 55.9886 53.2885 55.8287 53.4541L52.3007 57.108Z" fill="#141C1E"/>
<path d="M52.0323 57.0915C52.1098 57.1664 52.2029 57.0866 52.2393 57.0489L55.7676 53.3952C55.9073 53.2506 55.9766 52.964 55.9198 52.7693L53.6636 45.0712C53.6495 45.023 53.6283 44.9846 53.6027 44.9598C53.5252 44.885 53.4322 44.9651 53.3958 45.0028L49.8683 48.6561C49.7284 48.8005 49.6588 49.0868 49.7157 49.2816L51.9712 56.9802C51.9854 57.0283 52.0069 57.067 52.0323 57.0915Z" fill="#303E42"/>
<path d="M49.6474 48.0511C49.4872 48.2169 49.3024 48.1698 49.2372 47.9461L47.0751 40.5693C47.0096 40.3463 47.0868 40.0274 47.247 39.8616L50.7745 36.2082C50.9344 36.0426 51.1194 36.0899 51.1849 36.3134L53.3467 43.6905C53.4122 43.9135 53.3351 44.2318 53.1747 44.3979L49.6474 48.0511Z" fill="#141C1E"/>
<path d="M54.8359 65.7578C54.6758 65.9236 54.4915 65.8766 54.4261 65.6531L52.289 58.3614C52.2233 58.1376 52.3006 57.8191 52.4608 57.6536L55.9888 53.9998C56.149 53.8339 56.3332 53.881 56.399 54.1048L58.5355 61.397C58.6012 61.6202 58.5236 61.9385 58.3637 62.1042L54.8359 65.7578Z" fill="#141C1E"/>
<path d="M56.7063 72.1424C56.5517 72.3245 56.371 72.2904 56.3053 72.0667L54.8236 67.0112C54.7583 66.788 54.8358 66.4699 54.9962 66.3038L58.5235 62.6506C58.6836 62.4848 58.8681 62.5321 58.9331 62.7551L60.2927 67.3931C60.3579 67.6164 60.2851 67.948 60.13 68.1297L56.7063 72.1424Z" fill="#141C1E"/>
<path d="M56.4431 72.1493L56.5049 72.1749C56.5461 72.1732 56.5959 72.1415 56.6419 72.0876L60.0658 68.0742C60.2026 67.9141 60.2695 67.6122 60.2115 67.416L58.8527 62.7782C58.8387 62.7298 58.8176 62.6914 58.7919 62.6666C58.7144 62.5918 58.6212 62.6716 58.5846 62.7096L55.0573 66.3627C54.9176 66.5073 54.848 66.7942 54.9052 66.9886L56.387 72.0441C56.4003 72.0904 56.4198 72.1268 56.4431 72.1493Z" fill="#303E42"/>
<path d="M44.3858 19.3037L45.5201 18.129C45.5565 18.0913 45.65 18.0113 45.7278 18.0864C45.7532 18.1109 45.7743 18.1497 45.7885 18.198L48.044 25.896C48.1014 26.0907 48.0314 26.3776 47.8917 26.5223L46.8331 27.6187L44.3858 19.3037Z" fill="#303E42"/>
<path d="M46.7733 27.68L44.3636 30.1752C44.3272 30.2129 44.234 30.2932 44.1565 30.2183C44.1308 30.1935 44.11 30.1549 44.096 30.107L41.8397 22.4086C41.7829 22.2139 41.8521 21.9274 41.9918 21.7827L44.3262 19.365L46.7733 27.68Z" fill="#303E42"/>
<path d="M51.9992 45.4918L49.5855 47.9917C49.5491 48.0294 49.4556 48.1094 49.3782 48.0346C49.3528 48.0101 49.3318 47.9714 49.3177 47.9233L47.1558 40.5466C47.0984 40.352 47.1685 40.0652 47.308 39.9208L49.6543 37.4907L51.9992 45.4918Z" fill="#303E42"/>
<path d="M49.7135 37.4295L50.8353 36.2676C50.8718 36.2299 50.9649 36.1501 51.0419 36.2245C51.0678 36.2495 51.089 36.2879 51.1031 36.3365L53.2651 43.7131C53.3219 43.9077 53.2523 44.1941 53.1127 44.3387L52.0582 45.4308L49.7135 37.4295Z" fill="#303E42"/>
<path d="M54.9298 55.2184L56.0494 54.0589C56.0861 54.0209 56.1793 53.9412 56.2571 54.0163C56.2825 54.0408 56.3033 54.0789 56.3178 54.1278L58.4541 61.4198C58.5114 61.6145 58.4419 61.9013 58.3025 62.0457L57.2498 63.136L54.9298 55.2184Z" fill="#303E42"/>
<path d="M57.1903 63.1973L54.7746 65.6992C54.7381 65.7369 54.6442 65.8164 54.567 65.7419C54.5413 65.7171 54.5207 65.6782 54.5062 65.6303L52.3695 58.3388C52.3123 58.1439 52.3819 57.8571 52.5213 57.7126L54.8701 55.28L57.1903 63.1973Z" fill="#303E42"/>
<path d="M45.4679 77.2035L45.539 77.1837L32.1272 31.4207L32.0563 31.4409L45.4679 77.2035Z" fill="#EA494A"/>
<path d="M56.0877 72.7577L56.1591 72.7378L38.7564 13.3541L38.6851 13.3741L56.0877 72.7577Z" fill="#EA494A"/>
<path d="M52.9127 76.0458L52.9843 76.0256L35.5811 16.6425L35.5093 16.663L52.9127 76.0458Z" fill="#EA494A"/>
<path d="M33.2314 28.5496C33.1516 28.6322 33.0598 28.6089 33.0265 28.4971L31.1299 22.0259C31.0975 21.9143 31.1361 21.7549 31.2159 21.6723L35.1548 17.5928C35.2348 17.5099 35.3272 17.5336 35.3599 17.6451L37.2566 24.1161C37.2895 24.2283 37.2504 24.3872 37.1703 24.4701L33.2314 28.5496Z" fill="#141C1E"/>
<path d="M33.1265 28.5112L33.1699 28.4903L37.1093 24.4114C37.169 24.3496 37.1996 24.222 37.1754 24.1388L35.2789 17.6678L35.2598 17.631L35.2159 17.652L31.277 21.7314C31.2174 21.7931 31.1867 21.9202 31.2106 22.0033L33.1075 28.4739L33.1265 28.5112Z" fill="#303E42"/>
<path d="M40.5488 34.8337L51.2262 71.2672L46.7433 75.9096L36.0659 39.4766L40.5488 34.8337Z" fill="#141C1E"/>
<path d="M38.9672 48.1209C38.8866 48.2038 38.7948 48.18 38.7619 48.0688L36.3866 39.9635C36.3537 39.8524 36.3925 39.6928 36.4724 39.6101L40.4118 35.5302C40.4916 35.4475 40.5841 35.471 40.617 35.5831L42.9924 43.6875C43.0248 43.7992 42.9865 43.9583 42.9061 44.0415L38.9672 48.1209Z" fill="#303E42"/>
<path d="M44.211 66.0146C44.1309 66.0975 44.0388 66.0745 44.0062 65.9626L41.6311 57.858C41.5982 57.7464 41.637 57.5872 41.7169 57.5045L45.6558 53.4251C45.7358 53.3422 45.8282 53.366 45.8609 53.4773L48.2362 61.5817C48.2689 61.6936 48.2299 61.8527 48.1501 61.9354L44.211 66.0146Z" fill="#303E42"/>
<path d="M30.6528 19.1866C31.4469 18.4487 32.8829 17.3032 34.4357 16.1601C34.9781 15.7609 35.0782 16.1665 35.1735 16.4921L29.0522 22.8314C29.0522 22.8314 28.4172 21.2648 30.6528 19.1866Z" fill="#141C1E"/>
<path d="M35.0787 16.4678C35.0402 16.3368 34.9958 16.1936 34.9233 16.1236C34.8919 16.0933 34.7958 16.0005 34.4865 16.2285C32.9055 17.3917 31.4939 18.5209 30.7113 19.2487C28.9189 20.9143 29.0078 22.2497 29.0935 22.6659L35.0787 16.4678Z" fill="#303E42"/>
<path d="M40.1921 52.8817L43.0307 49.9418L44.2779 54.1633L41.5623 56.9758C41.4822 57.0587 41.3899 57.0349 41.357 56.9233L40.1649 52.8554L40.1921 52.8817Z" fill="#303E42"/>
<path d="M41.8864 45.5462L43.0067 44.3859C43.0868 44.303 43.1792 44.3263 43.2118 44.4382L45.5866 52.5425C45.6192 52.6544 45.5808 52.8136 45.5008 52.8965L44.3957 54.041L41.8864 45.5462Z" fill="#303E42"/>
<path d="M43.0058 49.8594L40.1526 52.8145L38.9817 48.8194C38.9488 48.7078 38.9876 48.5486 39.0677 48.4657L41.7681 45.6689L43.0058 49.8594Z" fill="#303E42"/>
<path d="M47.1931 63.6383L48.3099 62.4816C48.3903 62.399 48.4826 62.4222 48.515 62.5339L50.8903 70.6383C50.9232 70.7498 50.8843 70.909 50.8043 70.9919L49.7029 72.1326L47.1931 63.6383Z" fill="#303E42"/>
<path d="M48.3133 67.9515L45.4568 70.9099L44.2853 66.9148C44.2529 66.8032 44.2915 66.6437 44.3713 66.5611L47.0752 63.7607L48.3133 67.9515Z" fill="#303E42"/>
<path d="M45.4947 70.9775L48.337 68.0338L49.5844 72.2551L46.8653 75.0712C46.7851 75.1543 46.6929 75.1308 46.6603 75.019L45.4682 70.952L45.4947 70.9775Z" fill="#303E42"/>
<path d="M50.8556 87.0467L55.1841 88.1524C55.2971 88.1811 55.3238 88.2729 55.2438 88.3558L54.8132 88.8017L50.0715 87.5941L50.5051 87.145C50.5849 87.0623 50.7431 87.0179 50.8556 87.0467Z" fill="#770000"/>
<path d="M75.4222 72.4288C75.5349 72.4572 75.5718 72.5572 75.5042 72.6503C75.5042 72.6503 75.4763 72.6897 75.3742 72.8123C75.1421 73.0908 71.9728 76.6598 71.9728 76.6598C71.8959 76.7457 71.7413 76.7926 71.6281 76.7643L58.0142 73.3126C57.9013 73.2839 57.8715 73.1902 57.9481 73.104C57.9481 73.104 61.1866 69.458 61.4217 69.1753C61.4905 69.0925 61.4905 69.0925 61.4905 69.0925C61.5522 69.0108 61.695 68.9676 61.8083 68.996L75.4222 72.4288Z" fill="#141C1E"/>
<path d="M57.9958 73.2128L58.0335 73.2309L71.6481 76.6827C71.731 76.7038 71.8531 76.6665 71.909 76.6032C71.9406 76.5673 75.0806 73.0324 75.3089 72.7577C75.4056 72.6419 75.4343 72.6027 75.4355 72.6004L75.4428 72.5306L75.4024 72.5105L61.7886 69.0778C61.7096 69.0578 61.5994 69.0898 61.5582 69.1439L61.4872 69.2301C61.2536 69.5102 58.1438 73.0113 58.0117 73.1602L57.9958 73.2128Z" fill="#303E42"/>
<path d="M63.7231 81.3806C65.7111 80.0358 68.5325 80.493 69.2708 80.6442C69.2421 80.676 69.214 80.7077 69.1859 80.7396C68.2676 80.5702 65.6599 80.2409 63.7901 81.5051C61.8133 82.8428 56.6606 87.5873 55.2364 88.9094L55.0779 88.8692C56.3586 87.6796 61.7013 82.7483 63.7231 81.3806Z" fill="#D02F30"/>
<path d="M47.0278 84.5398C46.8477 84.7264 46.9074 84.9302 47.161 84.9949C47.415 85.0594 47.7665 84.961 47.9466 84.7745C48.1267 84.5879 48.0671 84.3841 47.8136 84.3191C47.5597 84.2546 47.2079 84.3533 47.0278 84.5398Z" fill="#6B0000"/>
<path d="M47.0481 84.847C47.0782 84.876 47.124 84.8988 47.1805 84.913C47.404 84.9704 47.7265 84.8801 47.8852 84.7157C47.9283 84.6711 48.0186 84.5575 47.9257 84.4677C47.8956 84.4386 47.85 84.4157 47.7932 84.4012C47.5699 84.3443 47.247 84.435 47.0886 84.5991C47.0454 84.6437 46.9551 84.7572 47.0481 84.847Z" fill="#B61617"/>
<path d="M48.0167 83.5146C47.8366 83.7011 47.8967 83.905 48.1502 83.97C48.4039 84.0348 48.7556 83.936 48.9359 83.7493C49.116 83.5628 49.0562 83.3592 48.8025 83.2944C48.5488 83.2297 48.1968 83.3281 48.0167 83.5146Z" fill="#6B0000"/>
<path d="M48.0382 83.822C48.068 83.8508 48.114 83.8738 48.1708 83.8878C48.3939 83.9454 48.7168 83.8548 48.8754 83.6905C48.9184 83.6461 49.0084 83.5323 48.9157 83.4428C48.8856 83.4137 48.8401 83.3907 48.7834 83.376C48.5601 83.3191 48.2371 83.4095 48.0784 83.5738C48.0355 83.6183 47.9452 83.7322 48.0382 83.822Z" fill="#D4DBDF"/>
<path d="M49.0073 82.4898C48.8272 82.6763 48.8869 82.8801 49.1406 82.9448C49.3943 83.0096 49.746 82.9109 49.9264 82.7241C50.1065 82.5376 50.0466 82.334 49.7929 82.2693C49.5394 82.2043 49.1877 82.3029 49.0073 82.4898Z" fill="#6B0000"/>
<path d="M49.0279 82.7969C49.058 82.8259 49.1037 82.8488 49.1603 82.8629C49.3837 82.9204 49.7066 82.8297 49.8652 82.6654C49.9081 82.621 49.9984 82.507 49.9057 82.4174C49.8756 82.3884 49.8296 82.3659 49.7727 82.3514C49.5498 82.294 49.2267 82.385 49.0683 82.549C49.0252 82.5937 48.9349 82.7071 49.0279 82.7969Z" fill="#DC2620"/>
<path d="M60.2032 87.9052C60.0234 88.0915 60.0827 88.2951 60.3367 88.36C60.5904 88.4248 60.9419 88.3264 61.122 88.1399C61.3021 87.9534 61.2425 87.7495 60.9887 87.6847C60.7348 87.6197 60.3833 87.7187 60.2032 87.9052Z" fill="#6B0000"/>
<path d="M60.2243 88.2117C60.2545 88.2408 60.3 88.2637 60.3569 88.2783C60.5802 88.3351 60.9028 88.2447 61.0612 88.0807C61.1044 88.0359 61.1947 87.9225 61.1017 87.8327C61.0719 87.8039 61.0261 87.7806 60.9692 87.7662C60.7461 87.7091 60.4228 87.7997 60.2644 87.9638C60.2212 88.0085 60.1311 88.1217 60.2243 88.2117Z" fill="#B61617"/>
<path d="M61.1934 86.8794C61.013 87.0662 61.0731 87.2697 61.3268 87.3349C61.5805 87.3996 61.9323 87.301 62.1124 87.1145C62.2928 86.9277 62.2329 86.724 61.9794 86.659C61.7252 86.5943 61.3735 86.6929 61.1934 86.8794Z" fill="#6B0000"/>
<path d="M61.2139 87.1868C61.2437 87.2156 61.2898 87.2386 61.3462 87.2536C61.5694 87.3105 61.892 87.2195 62.0506 87.0553C62.0938 87.0105 62.1845 86.8973 62.0915 86.8076C62.0616 86.7787 62.0158 86.7555 61.9589 86.741C61.7356 86.6842 61.4126 86.7745 61.2542 86.9386C61.211 86.9833 61.1207 87.0968 61.2139 87.1868Z" fill="#D4DBDF"/>
<path d="M62.1826 85.855C62.0028 86.0412 62.062 86.2451 62.3159 86.3101C62.5698 86.3746 62.9214 86.2762 63.1018 86.0894C63.2819 85.9029 63.2219 85.6992 62.9682 85.6345C62.7143 85.5695 62.3627 85.6685 62.1826 85.855Z" fill="#6B0000"/>
<path d="M62.2036 86.1619C62.2338 86.191 62.2795 86.2137 62.3361 86.2284C62.5597 86.2851 62.8823 86.1941 63.0407 86.0301C63.0838 85.9854 63.1742 85.8724 63.0812 85.7827C63.0514 85.7538 63.0053 85.7309 62.9489 85.7159C62.7256 85.659 62.4028 85.7491 62.2439 85.9138C62.2007 85.9584 62.1104 86.0719 62.2036 86.1619Z" fill="#DC2620"/>
<path d="M54.2521 84.3739L57.2726 85.1451C57.3551 85.166 57.4143 85.2042 57.4487 85.2519C57.435 85.2945 57.4081 85.3379 57.3672 85.3803L56.2287 86.5594C56.0688 86.725 55.7532 86.8141 55.5274 86.7565L52.507 85.9847C52.4244 85.9639 52.3652 85.9251 52.3306 85.8777C52.3446 85.8353 52.3709 85.7924 52.4121 85.7497L53.5506 84.5706C53.7105 84.4045 54.0262 84.3165 54.2521 84.3739Z" fill="#770000"/>
<path d="M57.5407 73.581L72.0452 77.2856L72.0628 77.2139L57.5584 73.5088L57.5407 73.581Z" fill="#EA494A"/>
<path d="M74.4288 72.2652L75.3432 72.4956L74.4288 72.2652Z" fill="#909A9C"/>
<path d="M71.7076 76.5879L71.7694 76.6135C71.8108 76.6116 71.8606 76.5799 71.9063 76.5262L75.3308 72.5127L75.3429 72.4955L74.4285 72.2651L70.1554 71.1879C70.1454 71.2721 70.1488 71.3556 70.1699 71.427L71.6509 76.4827C71.6643 76.5291 71.6843 76.5654 71.7076 76.5879Z" fill="#98A4A7"/>
<path d="M39.3299 12.8653L44.6214 14.217L43.5887 10.6929C43.5715 10.6343 43.5432 10.5845 43.5065 10.5491C43.4411 10.4859 43.3595 10.4761 43.2824 10.5219L39.3422 12.8562L39.3299 12.8653Z" fill="#98A4A7"/>
<path d="M30.4892 19.464L31.8498 19.8113L35.0788 16.4677C35.0403 16.3367 34.9959 16.1935 34.9234 16.1235C34.892 16.0932 34.7959 16.0004 34.4867 16.2284C32.9056 17.3916 31.494 18.5208 30.7114 19.2487C30.6335 19.3214 30.5599 19.3929 30.4892 19.464Z" fill="#98A4A7"/>
<path d="M32.9022 20.0482L36.2252 20.8969L35.2789 17.6678L35.2598 17.631L35.2159 17.652L32.9022 20.0482Z" fill="#98A4A7"/>
<path d="M52.5071 85.985L55.5275 86.7568C55.7533 86.8144 56.0689 86.7253 56.2288 86.5597L57.3673 85.3806C57.4082 85.3382 57.4351 85.2948 57.4488 85.2522C57.5084 85.3351 57.4934 85.4465 57.3917 85.5519L56.2531 86.731C56.093 86.8969 55.7776 86.9851 55.5517 86.9278L52.5315 86.1562C52.363 86.1134 52.291 86.0014 52.3307 85.878C52.3653 85.9254 52.4245 85.9642 52.5071 85.985Z" fill="#D02F30"/>
<path d="M53.6237 76.6398C54.1029 76.7766 57.1269 77.7164 56.185 79.4553C55.2814 81.1233 50.8583 86.3476 49.845 87.5364L49.7928 87.5229C50.8587 86.2717 55.2086 81.1274 56.1037 79.4757C57.0175 77.7895 54.2012 76.8545 53.5929 76.675L53.6237 76.6398Z" fill="#D02F30"/>
<path d="M50.352 88.0459C50.3776 88.0707 50.4116 88.0885 50.4522 88.0987L53.9232 88.984C54.0474 89.0156 54.2132 88.9691 54.3018 88.8774L54.6862 88.4792C54.7628 88.3999 54.7683 88.2984 54.6986 88.2311C54.6727 88.2061 54.639 88.1881 54.5981 88.178L51.1275 87.2926C51.0032 87.2604 50.8363 87.3075 50.7483 87.3986L50.3636 87.797C50.287 87.8764 50.2823 87.9787 50.352 88.0459Z" fill="#758286"/>
<path d="M50.418 87.8495C50.3479 87.922 50.3713 88.0025 50.4701 88.027L53.941 88.9128C54.0398 88.9384 54.1783 88.8993 54.2489 88.8262L54.6333 88.428C54.7039 88.3549 54.6802 88.2752 54.5814 88.2496L51.1102 87.3641C51.0117 87.3393 50.873 87.3782 50.8027 87.4511L50.418 87.8495Z" fill="white"/>
<path d="M28.1829 32.4011C28.1829 32.4011 25.7868 24.5886 26.0839 23.8707C26.1531 23.7042 26.3217 23.4321 26.564 23.0906L29.8606 34.3414L29.8296 34.3719L29.0092 35.2217L28.1829 32.4011Z" fill="#ECB700"/>
<path d="M44.2935 85.3594L40.9038 75.8058L39.6375 71.4855L40.4574 70.6363L40.4878 70.6023L42.5114 77.5053L45.1733 84.8501C45.3868 85.4181 46.081 85.757 46.7891 86.1067C47.4967 86.4564 49.8452 87.5364 49.8452 87.5364L45.3665 86.3954C44.7374 86.2473 44.4351 85.7577 44.2935 85.3594Z" fill="#ECB700"/>
<path d="M30.854 41.5166L31.6743 40.6671L31.7041 40.6331L38.6436 64.3109L38.6127 64.3419L37.7927 65.1911L30.854 41.5166Z" fill="#ECB700"/>
<path d="M26.0836 23.8706C26.1316 23.7547 26.2281 23.5873 26.3638 23.3818L29.6412 34.5667L29.0088 35.2216L28.1826 32.4011C28.1826 32.4011 25.7864 24.5886 26.0836 23.8706Z" fill="#414E52"/>
<path d="M44.2935 85.3594L40.9037 75.8058L39.6374 71.4855L40.2695 70.8308L42.2923 77.7321L44.9546 85.0766C45.1682 85.6445 45.8622 85.9836 46.5701 86.3335C47.2782 86.6827 49.7929 87.5229 49.7929 87.5229L49.7927 87.5231L45.3665 86.3954C44.7374 86.2473 44.4351 85.7577 44.2935 85.3594Z" fill="#414E52"/>
<path d="M31.4863 40.8616L38.4251 64.5361L37.7927 65.191L30.854 41.5165L31.4863 40.8616Z" fill="#414E52"/>
<path d="M32.7647 16.102L33.5592 16.4054L33.6108 16.2665L32.8161 15.9629L32.7647 16.102Z" fill="#840000"/>
<path d="M31.0695 16.9305C30.9997 17.0028 31.0231 17.0823 31.1214 17.1073L31.9859 17.328C32.0844 17.3533 32.2216 17.3151 32.2914 17.2427L34.4155 15.0428C34.4854 14.9705 34.4617 14.8907 34.3637 14.8654L33.4986 14.6447C33.4006 14.6195 33.2632 14.6586 33.1934 14.7309L31.0695 16.9305Z" fill="#840000"/>
<path fill-rule="evenodd" clip-rule="evenodd" d="M31.1141 17.0135L31.1412 17.0257L32.006 17.2472C32.0744 17.2643 32.1819 17.2343 32.2305 17.1839L34.3546 14.984L34.3717 14.9575L34.3435 14.9473L33.4795 14.7266C33.4105 14.709 33.3033 14.7388 33.2542 14.7897L31.1304 16.9892L31.1141 17.0135Z" fill="url(#paint13_linear_2003_786)"/>
<path d="M60.2514 90.187L55.3169 88.93L61.2192 89.239L60.2514 90.187Z" fill="#ECB700"/>
<path d="M60.2514 90.187L55.317 88.93L60.8743 89.5763L60.2514 90.187Z" fill="#414E52"/>
<defs>
<linearGradient id="paint0_linear_2003_786" x1="37.9276" y1="66.5308" x2="40.9177" y2="69.4179" gradientUnits="userSpaceOnUse">
<stop stop-color="#B7B9BB"/>
<stop offset="1" stop-color="#6D7072"/>
</linearGradient>
<linearGradient id="paint1_linear_2003_786" x1="41.2621" y1="66.0693" x2="37.5835" y2="69.8792" gradientUnits="userSpaceOnUse">
<stop stop-color="white"/>
<stop offset="1" stop-color="white" stop-opacity="0"/>
</linearGradient>
<linearGradient id="paint2_linear_2003_786" x1="37.8858" y1="66.5738" x2="40.7362" y2="69.3261" gradientUnits="userSpaceOnUse">
<stop stop-color="#D0D2D4"/>
<stop offset="1" stop-color="#86898B"/>
</linearGradient>
<linearGradient id="paint3_linear_2003_786" x1="40.9848" y1="67.0922" x2="39.0247" y2="69.1222" gradientUnits="userSpaceOnUse">
<stop stop-color="white"/>
<stop offset="1" stop-color="white" stop-opacity="0"/>
</linearGradient>
<linearGradient id="paint4_linear_2003_786" x1="40.2061" y1="67.6767" x2="39.5517" y2="68.3544" gradientUnits="userSpaceOnUse">
<stop stop-color="white"/>
<stop offset="1" stop-color="white" stop-opacity="0"/>
</linearGradient>
<linearGradient id="paint5_linear_2003_786" x1="32.4509" y1="36.1857" x2="28.7719" y2="39.9959" gradientUnits="userSpaceOnUse">
<stop stop-color="white"/>
<stop offset="1" stop-color="white" stop-opacity="0"/>
</linearGradient>
<linearGradient id="paint6_linear_2003_786" x1="29.1161" y1="36.647" x2="32.1065" y2="39.5345" gradientUnits="userSpaceOnUse">
<stop stop-color="#E6E8EB"/>
<stop offset="1" stop-color="#717475"/>
</linearGradient>
<linearGradient id="paint7_linear_2003_786" x1="32.3789" y1="36.1198" x2="28.7023" y2="39.9276" gradientUnits="userSpaceOnUse">
<stop stop-color="white"/>
<stop offset="1" stop-color="white" stop-opacity="0"/>
</linearGradient>
<linearGradient id="paint8_linear_2003_786" x1="31.4473" y1="37.0861" x2="29.4875" y2="39.1158" gradientUnits="userSpaceOnUse">
<stop stop-color="white"/>
<stop offset="1" stop-color="white" stop-opacity="0"/>
</linearGradient>
<linearGradient id="paint9_linear_2003_786" x1="30.668" y1="37.6706" x2="30.0136" y2="38.3483" gradientUnits="userSpaceOnUse">
<stop stop-color="white"/>
<stop offset="1" stop-color="white" stop-opacity="0"/>
</linearGradient>
<linearGradient id="paint10_linear_2003_786" x1="35.5689" y1="52.801" x2="34.7592" y2="53.0383" gradientUnits="userSpaceOnUse">
<stop stop-color="#FF0002"/>
<stop offset="1" stop-color="#AB0000"/>
</linearGradient>
<linearGradient id="paint11_linear_2003_786" x1="76.5597" y1="92.3797" x2="75.7499" y2="92.6169" gradientUnits="userSpaceOnUse">
<stop stop-color="#CCCCCC"/>
<stop offset="1" stop-color="#CCCCCC"/>
</linearGradient>
<linearGradient id="paint12_linear_2003_786" x1="76.5597" y1="92.3797" x2="75.7499" y2="92.6169" gradientUnits="userSpaceOnUse">
<stop stop-color="#CC0002"/>
<stop offset="1" stop-color="#890000"/>
</linearGradient>
<linearGradient id="paint13_linear_2003_786" x1="31.2689" y1="16.4936" x2="35.288" y2="15.0619" gradientUnits="userSpaceOnUse">
<stop stop-color="white"/>
<stop offset="1"/>
</linearGradient>
</defs>
</svg>
