<svg width="51" height="59" viewBox="0 0 51 59" fill="none" xmlns="http://www.w3.org/2000/svg">
<g filter="url(#filter0_d_498_404)">
<path d="M9.25588 20.3061C11.7574 10.9704 21.3533 5.43025 30.6889 7.93173C40.0246 10.4332 45.5648 20.0291 43.0633 29.3648C41.8638 33.8414 38.2219 37.4256 33.3758 40.6453C30.9791 42.2378 28.3687 43.6893 25.7468 45.0907C25.058 45.4589 24.3649 45.8254 23.6745 46.1904C22.4002 46.8642 21.1355 47.5329 19.9249 48.1979C19.1309 46.8457 18.2604 45.4423 17.3789 44.0213C17.1161 43.5975 16.8522 43.1722 16.5891 42.7461C15.037 40.2326 13.4858 37.6558 12.1751 35.0497C9.51903 29.7682 8.06161 24.7632 9.25588 20.3061Z" fill="#3F87DC" stroke="white" stroke-width="4"/>
<g clip-path="url(#clip0_498_404)">
<path d="M19.4731 21.8788C18.2173 26.5653 21.2787 31.5394 22.6953 33.5115C22.898 33.7938 23.0006 33.9366 23.1797 34.0431C23.3192 34.126 23.5413 34.1855 23.7036 34.1834C23.9123 34.1808 24.0714 34.1092 24.3892 33.9656C26.6021 32.966 31.7401 30.1892 32.9958 25.5027C33.4711 23.7292 33.2145 21.8372 32.2825 20.2433C31.3506 18.6495 29.8196 17.4841 28.0264 17.0036C26.2331 16.5231 24.3244 16.7669 22.7204 17.6813C21.1163 18.5956 19.9483 20.1053 19.4731 21.8788Z" stroke="white" stroke-width="2" stroke-linecap="round" stroke-linejoin="round"/>
<path d="M24.5415 22.2815C24.2557 23.3485 24.8888 24.4451 25.9558 24.731C27.0227 25.0169 28.1194 24.3837 28.4052 23.3168C28.6911 22.2499 28.058 21.1532 26.991 20.8673C25.9241 20.5814 24.8274 21.2146 24.5415 22.2815Z" stroke="white" stroke-width="2" stroke-linecap="round" stroke-linejoin="round"/>
</g>
</g>
<defs>
<filter id="filter0_d_498_404" x="2.83388" y="5.3306" width="46.8305" height="53.5848" filterUnits="userSpaceOnUse" color-interpolation-filters="sRGB">
<feFlood flood-opacity="0" result="BackgroundImageFix"/>
<feColorMatrix in="SourceAlpha" type="matrix" values="0 0 0 0 0 0 0 0 0 0 0 0 0 0 0 0 0 0 127 0" result="hardAlpha"/>
<feOffset dy="4"/>
<feGaussianBlur stdDeviation="2"/>
<feComposite in2="hardAlpha" operator="out"/>
<feColorMatrix type="matrix" values="0 0 0 0 0 0 0 0 0 0 0 0 0 0 0 0 0 0 0.25 0"/>
<feBlend mode="normal" in2="BackgroundImageFix" result="effect1_dropShadow_498_404"/>
<feBlend mode="normal" in="SourceGraphic" in2="effect1_dropShadow_498_404" result="shape"/>
</filter>
<clipPath id="clip0_498_404">
<rect width="24" height="24" fill="white" transform="translate(17.2117 11) rotate(15)"/>
</clipPath>
</defs>
</svg>
