<svg width="27" height="27" viewBox="0 0 27 27" fill="none" xmlns="http://www.w3.org/2000/svg">
<g clip-path="url(#clip0_7_1901)">
<path d="M23.2539 4.155C20.7055 1.49507 17.1796 -0.0060684 13.4959 0.000709499C6.05165 -0.0086666 0.00920368 6.01853 -0.000172418 13.4629C-0.00480399 17.1438 1.49616 20.6665 4.15412 23.213C4.16186 23.2207 4.16474 23.2323 4.17242 23.2391C4.25048 23.3143 4.33531 23.3779 4.41439 23.4502C4.63128 23.643 4.84817 23.8425 5.07665 24.0286C5.19904 24.125 5.3263 24.2214 5.45163 24.3101C5.66757 24.471 5.8835 24.632 6.10903 24.7805C6.26233 24.8769 6.42042 24.9733 6.5775 25.0697C6.78569 25.195 6.99299 25.3213 7.20796 25.436C7.39017 25.5324 7.57617 25.6152 7.76126 25.703C7.96369 25.7994 8.16325 25.8957 8.37048 25.9825C8.57772 26.0693 8.78597 26.1368 8.99608 26.2119C9.2062 26.2871 9.38745 26.3565 9.58892 26.4182C9.81643 26.4867 10.0497 26.5396 10.2811 26.5965C10.4738 26.6437 10.6608 26.6977 10.8594 26.7363C11.1255 26.7894 11.3954 26.8231 11.6653 26.8597C11.8321 26.8829 11.995 26.9156 12.1637 26.932C12.6052 26.9754 13.0505 26.9995 13.4997 26.9995C13.9489 26.9995 14.3943 26.9754 14.8358 26.932C15.0045 26.9156 15.1674 26.8829 15.3341 26.8597C15.604 26.8231 15.8739 26.7894 16.14 26.7363C16.3328 26.6977 16.5256 26.6399 16.7184 26.5965C16.9497 26.5396 17.183 26.4866 17.4105 26.4182C17.612 26.3565 17.8067 26.2813 18.0033 26.2119C18.2 26.1425 18.4236 26.0673 18.629 25.9825C18.8343 25.8977 19.0357 25.7984 19.2382 25.703C19.4233 25.6152 19.6093 25.5323 19.7915 25.436C20.0064 25.3213 20.2137 25.195 20.4219 25.0697C20.5791 24.9733 20.7372 24.8856 20.8904 24.7805C21.116 24.6321 21.3319 24.4711 21.5478 24.3101C21.6731 24.2136 21.8003 24.1269 21.9228 24.0286C22.1513 23.8454 22.3681 23.6507 22.585 23.4502C22.6641 23.3779 22.7489 23.3143 22.827 23.2391C22.8347 23.2324 22.8376 23.2208 22.8453 23.213C28.221 18.0631 28.4038 9.5305 23.2539 4.155ZM21.0872 22.2038C20.9118 22.358 20.7306 22.5045 20.5474 22.6462C20.4395 22.7292 20.3315 22.8111 20.2206 22.8901C20.0462 23.0164 19.8688 23.136 19.6885 23.2507C19.5574 23.3345 19.4234 23.4155 19.2884 23.4946C19.1188 23.591 18.9462 23.6873 18.7717 23.7837C18.6175 23.8628 18.4603 23.937 18.3023 24.0103C18.1443 24.0836 17.9697 24.1616 17.7991 24.2301C17.6285 24.2985 17.4473 24.3631 17.2689 24.4228C17.106 24.4788 16.9431 24.5366 16.7782 24.5857C16.5855 24.6436 16.384 24.6908 16.1844 24.739C16.0283 24.7756 15.8741 24.8171 15.716 24.848C15.4875 24.8923 15.2542 24.9232 15.02 24.955C14.887 24.9723 14.7549 24.9964 14.6209 25.0099C14.2507 25.0456 13.8757 25.0668 13.4969 25.0668C13.1181 25.0668 12.7431 25.0456 12.3729 25.0099C12.2389 24.9964 12.1069 24.9723 11.9738 24.955C11.7396 24.9232 11.5063 24.8923 11.2778 24.848C11.1197 24.8172 10.9655 24.7757 10.8093 24.739C10.6098 24.6909 10.4112 24.6426 10.2155 24.5857C10.0507 24.5366 9.88777 24.4788 9.72487 24.4228C9.54656 24.3612 9.36819 24.2985 9.19467 24.2301C9.02116 24.1616 8.8573 24.0864 8.69147 24.0103C8.52564 23.9342 8.37624 23.8628 8.22204 23.7837C8.04757 23.6931 7.87502 23.5977 7.70534 23.4946C7.57041 23.4155 7.43637 23.3345 7.30528 23.2507C7.12504 23.136 6.94763 23.0164 6.77316 22.8901C6.66228 22.8111 6.55434 22.7292 6.44635 22.6462C6.26318 22.5045 6.08198 22.3571 5.90654 22.2038C5.86413 22.172 5.82555 22.1315 5.78415 22.0948C5.82724 18.8156 7.93387 15.9201 11.0407 14.8698C12.5941 15.6088 14.3977 15.6088 15.9512 14.8698C19.0579 15.9201 21.1646 18.8155 21.2077 22.0948C21.1672 22.1315 21.1286 22.1681 21.0872 22.2038ZM10.1345 7.72966C11.1782 5.87342 13.5291 5.21478 15.3853 6.25852C17.2416 7.30226 17.9002 9.65312 16.8565 11.5094C16.5102 12.1252 16.0013 12.6342 15.3853 12.9805C15.3805 12.9805 15.3747 12.9805 15.3689 12.9863C15.1133 13.1285 14.8432 13.243 14.5631 13.3275C14.513 13.342 14.4666 13.3613 14.4137 13.3738C14.3172 13.3989 14.216 13.4162 14.1167 13.4336C13.9298 13.4663 13.7406 13.4852 13.5509 13.4904H13.441C13.2512 13.4852 13.0621 13.4663 12.8751 13.4336C12.7787 13.4162 12.6765 13.3989 12.5783 13.3738C12.5271 13.3613 12.4818 13.342 12.4289 13.3275C12.1488 13.243 11.8786 13.1286 11.623 12.9863L11.6056 12.9805C9.74939 11.9368 9.09075 9.58591 10.1345 7.72966ZM22.9178 20.1833C22.2992 17.298 20.3992 14.8519 17.7567 13.5387C19.9169 11.1856 19.7604 7.52684 17.4073 5.36666C15.0542 3.20649 11.3954 3.36294 9.23523 5.71606C7.20446 7.92826 7.20446 11.3266 9.23523 13.5387C6.59269 14.852 4.69273 17.298 4.07414 20.1833C0.377696 14.9766 1.60201 7.75915 6.80874 4.06271C12.0155 0.366264 19.2329 1.59058 22.9294 6.79731C24.3189 8.7546 25.0648 11.0959 25.0636 13.4962C25.0636 15.8946 24.3133 18.2328 22.9178 20.1833Z" fill="#233A8A"/>
</g>
<defs>
<clipPath id="clip0_7_1901">
<rect width="27" height="27" fill="white"/>
</clipPath>
</defs>
</svg>
